<svg width="16" height="16" viewBox="0 0 16 16" fill="none" xmlns="http://www.w3.org/2000/svg">
<path d="M5.33332 14.6667H10.6667C13.3467 14.6667 13.8267 13.5933 13.9667 12.2867L14.4667 6.95333C14.6467 5.32667 14.18 4 11.3333 4H4.66665C1.81999 4 1.35332 5.32667 1.53332 6.95333L2.03332 12.2867C2.17332 13.5933 2.65332 14.6667 5.33332 14.6667Z" stroke="#004DE1" stroke-miterlimit="10" stroke-linecap="round" stroke-linejoin="round"/>
<path d="M5.33334 4.00016V3.46683C5.33334 2.28683 5.33334 1.3335 7.46668 1.3335H8.53334C10.6667 1.3335 10.6667 2.28683 10.6667 3.46683V4.00016" stroke="#004DE1" stroke-miterlimit="10" stroke-linecap="round" stroke-linejoin="round"/>
<path d="M9.33332 8.66667V9.33333C9.33332 9.34 9.33332 9.34 9.33332 9.34667C9.33332 10.0733 9.32666 10.6667 7.99999 10.6667C6.67999 10.6667 6.66666 10.08 6.66666 9.35333V8.66667C6.66666 8 6.66666 8 7.33332 8H8.66666C9.33332 8 9.33332 8 9.33332 8.66667Z" stroke="#004DE1" stroke-miterlimit="10" stroke-linecap="round" stroke-linejoin="round"/>
<path d="M14.4333 7.3335C12.8933 8.4535 11.1333 9.12016 9.33334 9.34683" stroke="#004DE1" stroke-miterlimit="10" stroke-linecap="round" stroke-linejoin="round"/>
<path d="M1.74667 7.51318C3.24667 8.53985 4.94001 9.15985 6.66667 9.35318" stroke="#004DE1" stroke-miterlimit="10" stroke-linecap="round" stroke-linejoin="round"/>
</svg>
