<svg width="30" height="30" viewBox="0 0 30 30" fill="none" xmlns="http://www.w3.org/2000/svg">
<path d="M15.1875 20.625V23.25" stroke="#292D32" stroke-width="1.5" stroke-linecap="round" stroke-linejoin="round"/>
<path d="M8.9375 27.5H21.4375V26.25C21.4375 24.875 20.3125 23.75 18.9375 23.75H11.4375C10.0625 23.75 8.9375 24.875 8.9375 26.25V27.5V27.5Z" stroke="#292D32" stroke-width="1.5" stroke-miterlimit="10"/>
<path d="M7.6875 27.5H22.6875" stroke="#292D32" stroke-width="1.5" stroke-linecap="round" stroke-linejoin="round"/>
<path d="M15 20C10.1625 20 6.25 16.0875 6.25 11.25V7.5C6.25 4.7375 8.4875 2.5 11.25 2.5H18.75C21.5125 2.5 23.75 4.7375 23.75 7.5V11.25C23.75 16.0875 19.8375 20 15 20Z" stroke="#292D32" stroke-width="1.5" stroke-linecap="round" stroke-linejoin="round"/>
<path d="M6.83749 14.5625C5.89999 14.2625 5.07499 13.7125 4.42499 13.0625C3.29999 11.8125 2.54999 10.3125 2.54999 8.5625C2.54999 6.8125 3.92499 5.4375 5.67499 5.4375H6.48749C6.23749 6.0125 6.11249 6.65 6.11249 7.3125V11.0625C6.11249 12.3125 6.37499 13.4875 6.83749 14.5625Z" stroke="#292D32" stroke-width="1.5" stroke-linecap="round" stroke-linejoin="round"/>
<path d="M23.1625 14.5625C24.1 14.2625 24.925 13.7125 25.575 13.0625C26.7 11.8125 27.45 10.3125 27.45 8.5625C27.45 6.8125 26.075 5.4375 24.325 5.4375H23.5125C23.7625 6.0125 23.8875 6.65 23.8875 7.3125V11.0625C23.8875 12.3125 23.625 13.4875 23.1625 14.5625Z" stroke="#292D32" stroke-width="1.5" stroke-linecap="round" stroke-linejoin="round"/>
</svg>
