<svg width="16" height="16" viewBox="0 0 16 16" fill="none" xmlns="http://www.w3.org/2000/svg">
<path d="M12.0267 9.03316C11.7467 9.3065 11.5867 9.69983 11.6267 10.1198C11.6867 10.8398 12.3467 11.3665 13.0667 11.3665H14.3334V12.1598C14.3334 13.5398 13.2067 14.6665 11.8267 14.6665H4.17335C2.79335 14.6665 1.66669 13.5398 1.66669 12.1598V7.67318C1.66669 6.29318 2.79335 5.1665 4.17335 5.1665H11.8267C13.2067 5.1665 14.3334 6.29318 14.3334 7.67318V8.63318H12.9867C12.6134 8.63318 12.2734 8.77983 12.0267 9.03316Z" stroke="#004DE1" stroke-linecap="round" stroke-linejoin="round"/>
<path d="M1.66669 8.27337V5.22674C1.66669 4.4334 2.15335 3.72671 2.89335 3.44671L8.18669 1.44671C9.01335 1.13337 9.90002 1.74673 9.90002 2.63339V5.16672" stroke="#004DE1" stroke-linecap="round" stroke-linejoin="round"/>
<path d="M15.0392 9.31327V10.6866C15.0392 11.0533 14.7459 11.3533 14.3726 11.3666H13.0659C12.3459 11.3666 11.6859 10.84 11.6259 10.12C11.5859 9.69995 11.7459 9.30662 12.0259 9.03328C12.2726 8.77995 12.6126 8.6333 12.9859 8.6333H14.3726C14.7459 8.64663 15.0392 8.94661 15.0392 9.31327Z" stroke="#004DE1" stroke-linecap="round" stroke-linejoin="round"/>
<path d="M4.66669 8H9.33335" stroke="#004DE1" stroke-linecap="round" stroke-linejoin="round"/>
</svg>
