<svg width="66" height="30" viewBox="0 0 66 30" fill="none" xmlns="http://www.w3.org/2000/svg">
<path d="M19.8 24.28C18.8933 25.88 17.6667 27.1733 16.12 28.16C14.6 29.1467 12.7333 29.64 10.52 29.64C9.02667 29.64 7.64 29.3867 6.36 28.88C5.10667 28.3467 4.01333 27.6133 3.08 26.68C2.14667 25.7467 1.41333 24.6533 0.88 23.4C0.373333 22.12 0.12 20.72 0.12 19.2C0.12 17.7867 0.373333 16.4533 0.88 15.2C1.38667 13.92 2.09333 12.8133 3 11.88C3.90667 10.92 4.97333 10.16 6.2 9.6C7.45333 9.04 8.82667 8.76 10.32 8.76C11.8933 8.76 13.2933 9.02667 14.52 9.56C15.7467 10.0667 16.7733 10.7867 17.6 11.72C18.4267 12.6267 19.0533 13.7067 19.48 14.96C19.9067 16.2133 20.12 17.5733 20.12 19.04C20.12 19.2267 20.12 19.3867 20.12 19.52C20.0933 19.68 20.08 19.8267 20.08 19.96C20.0533 20.0933 20.04 20.24 20.04 20.4H5.28C5.38667 21.2 5.6 21.8933 5.92 22.48C6.26667 23.04 6.68 23.52 7.16 23.92C7.66667 24.2933 8.21333 24.5733 8.8 24.76C9.38667 24.92 9.98667 25 10.6 25C11.8 25 12.7867 24.7333 13.56 24.2C14.36 23.64 14.9867 22.9467 15.44 22.12L19.8 24.28ZM15.04 16.68C15.0133 16.3333 14.8933 15.9467 14.68 15.52C14.4933 15.0933 14.2 14.6933 13.8 14.32C13.4267 13.9467 12.9467 13.64 12.36 13.4C11.8 13.16 11.12 13.04 10.32 13.04C9.2 13.04 8.21333 13.36 7.36 14C6.50667 14.64 5.90667 15.5333 5.56 16.68H15.04ZM23.4666 0.359999H28.7066V8.4L28.3866 11.96H28.7066C29.2666 11.0267 30.0666 10.2667 31.1066 9.68C32.1732 9.06667 33.3599 8.76 34.6666 8.76C37.1999 8.76 39.0666 9.50667 40.2666 11C41.4932 12.4933 42.1066 14.5333 42.1066 17.12V29H36.8666V17.76C36.8666 16.4 36.5466 15.3733 35.9066 14.68C35.2666 13.96 34.3732 13.6 33.2266 13.6C32.5066 13.6 31.8666 13.76 31.3066 14.08C30.7466 14.3733 30.2666 14.7867 29.8666 15.32C29.4932 15.8533 29.1999 16.48 28.9866 17.2C28.7999 17.8933 28.7066 18.64 28.7066 19.44V29H23.4666V0.359999ZM46.4353 9.4H51.3553V12.12H51.6753C51.9153 11.64 52.2353 11.2 52.6353 10.8C53.0353 10.4 53.4753 10.0533 53.9553 9.76C54.462 9.46667 54.9953 9.24 55.5553 9.08C56.142 8.92 56.7153 8.84 57.2753 8.84C57.9686 8.84 58.5553 8.90667 59.0353 9.04C59.542 9.17333 59.9686 9.34667 60.3153 9.56L58.9153 14.32C58.5953 14.16 58.2353 14.04 57.8353 13.96C57.462 13.8533 56.9953 13.8 56.4353 13.8C55.7153 13.8 55.062 13.9467 54.4753 14.24C53.8886 14.5067 53.382 14.8933 52.9553 15.4C52.5553 15.9067 52.2353 16.5067 51.9953 17.2C51.782 17.8667 51.6753 18.6 51.6753 19.4V29H46.4353V9.4ZM62.2906 29.24C61.3306 29.24 60.504 28.9067 59.8106 28.24C59.144 27.5467 58.8106 26.72 58.8106 25.76C58.8106 24.8 59.144 23.9867 59.8106 23.32C60.504 22.6533 61.3306 22.32 62.2906 22.32C63.2506 22.32 64.064 22.6533 64.7306 23.32C65.3973 23.9867 65.7306 24.8 65.7306 25.76C65.7306 26.72 65.3973 27.5467 64.7306 28.24C64.064 28.9067 63.2506 29.24 62.2906 29.24Z" fill="black"/>
</svg>
