<svg width="20" height="20" viewBox="0 0 20 20" fill="none" xmlns="http://www.w3.org/2000/svg">
<path d="M8.37477 2.10873L3.35811 5.38373C1.74977 6.43373 1.74977 8.78373 3.35811 9.83373L8.37477 13.1087C9.27477 13.7004 10.7581 13.7004 11.6581 13.1087L16.6498 9.83373C18.2498 8.78373 18.2498 6.44206 16.6498 5.39206L11.6581 2.11706C10.7581 1.51706 9.27477 1.51706 8.37477 2.10873Z" stroke="#292D32" stroke-width="1.5" stroke-linecap="round" stroke-linejoin="round"/>
<path d="M4.69144 10.9004L4.68311 14.8087C4.68311 15.8671 5.49977 17.0004 6.49977 17.3337L9.15811 18.2171C9.61644 18.3671 10.3748 18.3671 10.8414 18.2171L13.4998 17.3337C14.4998 17.0004 15.3164 15.8671 15.3164 14.8087V10.9421" stroke="#292D32" stroke-width="1.5" stroke-linecap="round" stroke-linejoin="round"/>
<path d="M17.8335 12.5V7.5" stroke="#292D32" stroke-width="1.5" stroke-linecap="round" stroke-linejoin="round"/>
</svg>
