<svg width="full" height="353" viewBox="0 0 379 353" fill="none" xmlns="http://www.w3.org/2000/svg">
<g clip-path="url(#clip0_372_1994)">
<rect width="379" height="353" rx="5" fill="#172263"/>
<rect x="42" y="70" width="294" height="319" rx="5" fill="white"/>
<path d="M75 205.5H137C139.485 205.5 141.5 207.515 141.5 210V254C141.5 256.485 139.485 258.5 137 258.5H75C72.5147 258.5 70.5 256.485 70.5 254V210C70.5 207.515 72.5147 205.5 75 205.5Z" fill="white"/>
<path d="M92.916 232.674V233.738H90.382V236.272H89.318V233.738H86.784V232.674H89.318V230.14H90.382V232.674H92.916ZM100.361 235.768V237H94.2573V235.712L96.7353 233.206C97.5659 232.357 98.1399 231.722 98.4573 231.302C98.7746 230.873 98.9333 230.425 98.9333 229.958C98.9333 229.538 98.7699 229.179 98.4433 228.88C98.1166 228.581 97.6966 228.432 97.1833 228.432C96.7446 228.432 96.3666 228.563 96.0493 228.824C95.7319 229.085 95.5266 229.403 95.4333 229.776L94.2573 229.3C94.4439 228.712 94.8033 228.217 95.3353 227.816C95.8673 227.405 96.4926 227.2 97.2113 227.2C98.0793 227.2 98.8026 227.466 99.3813 227.998C99.9599 228.53 100.249 229.183 100.249 229.958C100.249 230.882 99.7406 231.881 98.7233 232.954L95.9233 235.768H100.361ZM107.845 234.284C107.845 235.124 107.532 235.824 106.907 236.384C106.291 236.944 105.525 237.224 104.611 237.224C103.892 237.224 103.243 237.009 102.665 236.58C102.077 236.132 101.68 235.549 101.475 234.83L102.651 234.34C102.8 234.872 103.043 235.283 103.379 235.572C103.724 235.852 104.135 235.992 104.611 235.992C105.133 235.992 105.586 235.829 105.969 235.502C106.342 235.166 106.529 234.76 106.529 234.284C106.529 233.808 106.333 233.407 105.941 233.08C105.558 232.753 105.096 232.59 104.555 232.59H103.729V231.386H104.457C104.97 231.386 105.39 231.246 105.717 230.966C106.043 230.677 106.207 230.303 106.207 229.846C106.207 229.426 106.053 229.085 105.745 228.824C105.437 228.563 105.031 228.432 104.527 228.432C103.715 228.432 103.159 228.847 102.861 229.678L101.671 229.174C101.885 228.586 102.245 228.11 102.749 227.746C103.253 227.382 103.845 227.2 104.527 227.2C105.376 227.2 106.09 227.452 106.669 227.956C107.238 228.441 107.523 229.071 107.523 229.846C107.523 230.77 107.093 231.456 106.235 231.904V231.96C106.739 232.175 107.131 232.487 107.411 232.898C107.7 233.309 107.845 233.771 107.845 234.284ZM114.806 234.984V237H113.518V234.984H108.968V234.004L113.406 227.424H114.806V233.78H116.038V234.984H114.806ZM110.424 233.78H113.518V229.314H113.462L110.424 233.78Z" fill="#CECECE"/>
<path d="M75 205.5H137C139.485 205.5 141.5 207.515 141.5 210V254C141.5 256.485 139.485 258.5 137 258.5H75C72.5147 258.5 70.5 256.485 70.5 254V210C70.5 207.515 72.5147 205.5 75 205.5Z" stroke="#E9E9E9"/>
<path d="M158 205.5H303C305.485 205.5 307.5 207.515 307.5 210V254C307.5 256.485 305.485 258.5 303 258.5H158C155.515 258.5 153.5 256.485 153.5 254V210C153.5 207.515 155.515 205.5 158 205.5Z" fill="white"/>
<path d="M169.616 232.212C169.616 230.756 169.975 229.557 170.694 228.614C171.413 227.671 172.337 227.2 173.466 227.2C174.595 227.2 175.519 227.676 176.238 228.628C176.957 229.571 177.316 230.765 177.316 232.212C177.316 233.649 176.957 234.849 176.238 235.81C175.519 236.753 174.595 237.224 173.466 237.224C172.337 237.224 171.413 236.753 170.694 235.81C169.975 234.849 169.616 233.649 169.616 232.212ZM176 232.212C176 231.111 175.767 230.205 175.3 229.496C174.843 228.787 174.231 228.432 173.466 228.432C172.701 228.432 172.089 228.787 171.632 229.496C171.165 230.205 170.932 231.111 170.932 232.212C170.932 233.313 171.165 234.223 171.632 234.942C172.089 235.642 172.701 235.992 173.466 235.992C174.231 235.992 174.843 235.637 175.3 234.928C175.767 234.209 176 233.304 176 232.212ZM184.984 234.354C184.984 235.175 184.671 235.857 184.046 236.398C183.411 236.949 182.641 237.224 181.736 237.224C180.83 237.224 180.06 236.949 179.426 236.398C178.8 235.857 178.488 235.175 178.488 234.354C178.488 233.85 178.623 233.393 178.894 232.982C179.164 232.562 179.552 232.231 180.056 231.988V231.932C179.682 231.689 179.379 231.391 179.146 231.036C178.922 230.681 178.81 230.308 178.81 229.916C178.81 229.141 179.085 228.493 179.636 227.97C180.177 227.457 180.877 227.2 181.736 227.2C182.594 227.2 183.294 227.457 183.836 227.97C184.386 228.493 184.662 229.141 184.662 229.916C184.662 230.308 184.545 230.681 184.312 231.036C184.088 231.391 183.789 231.689 183.416 231.932V231.988C183.92 232.231 184.307 232.562 184.578 232.982C184.848 233.393 184.984 233.85 184.984 234.354ZM180.126 229.888C180.126 230.336 180.275 230.7 180.574 230.98C180.872 231.251 181.26 231.386 181.736 231.386C182.212 231.386 182.599 231.251 182.898 230.98C183.196 230.7 183.346 230.336 183.346 229.888C183.346 229.44 183.196 229.085 182.898 228.824C182.599 228.563 182.212 228.432 181.736 228.432C181.26 228.432 180.872 228.563 180.574 228.824C180.275 229.085 180.126 229.44 180.126 229.888ZM179.804 234.284C179.804 234.536 179.85 234.765 179.944 234.97C180.046 235.175 180.182 235.357 180.35 235.516C180.527 235.665 180.732 235.782 180.966 235.866C181.199 235.95 181.456 235.992 181.736 235.992C182.016 235.992 182.272 235.95 182.506 235.866C182.739 235.782 182.94 235.665 183.108 235.516C183.285 235.357 183.42 235.175 183.514 234.97C183.616 234.765 183.668 234.536 183.668 234.284C183.668 233.799 183.481 233.397 183.108 233.08C182.734 232.753 182.277 232.59 181.736 232.59C181.194 232.59 180.732 232.753 180.35 233.08C179.986 233.407 179.804 233.808 179.804 234.284ZM186.159 232.212C186.159 230.756 186.518 229.557 187.237 228.614C187.956 227.671 188.88 227.2 190.009 227.2C191.138 227.2 192.062 227.676 192.781 228.628C193.5 229.571 193.859 230.765 193.859 232.212C193.859 233.649 193.5 234.849 192.781 235.81C192.062 236.753 191.138 237.224 190.009 237.224C188.88 237.224 187.956 236.753 187.237 235.81C186.518 234.849 186.159 233.649 186.159 232.212ZM192.543 232.212C192.543 231.111 192.31 230.205 191.843 229.496C191.386 228.787 190.774 228.432 190.009 228.432C189.244 228.432 188.632 228.787 188.175 229.496C187.708 230.205 187.475 231.111 187.475 232.212C187.475 233.313 187.708 234.223 188.175 234.942C188.632 235.642 189.244 235.992 190.009 235.992C190.774 235.992 191.386 235.637 191.843 234.928C192.31 234.209 192.543 233.304 192.543 232.212ZM195.087 232.212C195.087 230.756 195.446 229.557 196.165 228.614C196.883 227.671 197.807 227.2 198.937 227.2C200.066 227.2 200.99 227.676 201.709 228.628C202.427 229.571 202.787 230.765 202.787 232.212C202.787 233.649 202.427 234.849 201.709 235.81C200.99 236.753 200.066 237.224 198.937 237.224C197.807 237.224 196.883 236.753 196.165 235.81C195.446 234.849 195.087 233.649 195.087 232.212ZM201.471 232.212C201.471 231.111 201.237 230.205 200.771 229.496C200.313 228.787 199.702 228.432 198.937 228.432C198.171 228.432 197.56 228.787 197.103 229.496C196.636 230.205 196.403 231.111 196.403 232.212C196.403 233.313 196.636 234.223 197.103 234.942C197.56 235.642 198.171 235.992 198.937 235.992C199.702 235.992 200.313 235.637 200.771 234.928C201.237 234.209 201.471 233.304 201.471 232.212ZM207.091 232.212C207.091 230.756 207.45 229.557 208.169 228.614C208.887 227.671 209.811 227.2 210.941 227.2C212.07 227.2 212.994 227.676 213.713 228.628C214.431 229.571 214.791 230.765 214.791 232.212C214.791 233.649 214.431 234.849 213.713 235.81C212.994 236.753 212.07 237.224 210.941 237.224C209.811 237.224 208.887 236.753 208.169 235.81C207.45 234.849 207.091 233.649 207.091 232.212ZM213.475 232.212C213.475 231.111 213.241 230.205 212.775 229.496C212.317 228.787 211.706 228.432 210.941 228.432C210.175 228.432 209.564 228.787 209.107 229.496C208.64 230.205 208.407 231.111 208.407 232.212C208.407 233.313 208.64 234.223 209.107 234.942C209.564 235.642 210.175 235.992 210.941 235.992C211.706 235.992 212.317 235.637 212.775 234.928C213.241 234.209 213.475 233.304 213.475 232.212ZM216.018 232.212C216.018 230.756 216.378 229.557 217.096 228.614C217.815 227.671 218.739 227.2 219.868 227.2C220.998 227.2 221.922 227.676 222.64 228.628C223.359 229.571 223.718 230.765 223.718 232.212C223.718 233.649 223.359 234.849 222.64 235.81C221.922 236.753 220.998 237.224 219.868 237.224C218.739 237.224 217.815 236.753 217.096 235.81C216.378 234.849 216.018 233.649 216.018 232.212ZM222.402 232.212C222.402 231.111 222.169 230.205 221.702 229.496C221.245 228.787 220.634 228.432 219.868 228.432C219.103 228.432 218.492 228.787 218.034 229.496C217.568 230.205 217.334 231.111 217.334 232.212C217.334 233.313 217.568 234.223 218.034 234.942C218.492 235.642 219.103 235.992 219.868 235.992C220.634 235.992 221.245 235.637 221.702 234.928C222.169 234.209 222.402 233.304 222.402 232.212ZM224.946 232.212C224.946 230.756 225.305 229.557 226.024 228.614C226.743 227.671 227.667 227.2 228.796 227.2C229.925 227.2 230.849 227.676 231.568 228.628C232.287 229.571 232.646 230.765 232.646 232.212C232.646 233.649 232.287 234.849 231.568 235.81C230.849 236.753 229.925 237.224 228.796 237.224C227.667 237.224 226.743 236.753 226.024 235.81C225.305 234.849 224.946 233.649 224.946 232.212ZM231.33 232.212C231.33 231.111 231.097 230.205 230.63 229.496C230.173 228.787 229.561 228.432 228.796 228.432C228.031 228.432 227.419 228.787 226.962 229.496C226.495 230.205 226.262 231.111 226.262 232.212C226.262 233.313 226.495 234.223 226.962 234.942C227.419 235.642 228.031 235.992 228.796 235.992C229.561 235.992 230.173 235.637 230.63 234.928C231.097 234.209 231.33 233.304 231.33 232.212ZM236.95 232.212C236.95 230.756 237.309 229.557 238.028 228.614C238.747 227.671 239.671 227.2 240.8 227.2C241.929 227.2 242.853 227.676 243.572 228.628C244.291 229.571 244.65 230.765 244.65 232.212C244.65 233.649 244.291 234.849 243.572 235.81C242.853 236.753 241.929 237.224 240.8 237.224C239.671 237.224 238.747 236.753 238.028 235.81C237.309 234.849 236.95 233.649 236.95 232.212ZM243.334 232.212C243.334 231.111 243.101 230.205 242.634 229.496C242.177 228.787 241.565 228.432 240.8 228.432C240.035 228.432 239.423 228.787 238.966 229.496C238.499 230.205 238.266 231.111 238.266 232.212C238.266 233.313 238.499 234.223 238.966 234.942C239.423 235.642 240.035 235.992 240.8 235.992C241.565 235.992 242.177 235.637 242.634 234.928C243.101 234.209 243.334 233.304 243.334 232.212ZM245.878 232.212C245.878 230.756 246.237 229.557 246.956 228.614C247.674 227.671 248.598 227.2 249.728 227.2C250.857 227.2 251.781 227.676 252.5 228.628C253.218 229.571 253.578 230.765 253.578 232.212C253.578 233.649 253.218 234.849 252.5 235.81C251.781 236.753 250.857 237.224 249.728 237.224C248.598 237.224 247.674 236.753 246.956 235.81C246.237 234.849 245.878 233.649 245.878 232.212ZM252.262 232.212C252.262 231.111 252.028 230.205 251.562 229.496C251.104 228.787 250.493 228.432 249.728 228.432C248.962 228.432 248.351 228.787 247.894 229.496C247.427 230.205 247.194 231.111 247.194 232.212C247.194 233.313 247.427 234.223 247.894 234.942C248.351 235.642 248.962 235.992 249.728 235.992C250.493 235.992 251.104 235.637 251.562 234.928C252.028 234.209 252.262 233.304 252.262 232.212ZM254.805 232.212C254.805 230.756 255.165 229.557 255.883 228.614C256.602 227.671 257.526 227.2 258.655 227.2C259.785 227.2 260.709 227.676 261.427 228.628C262.146 229.571 262.505 230.765 262.505 232.212C262.505 233.649 262.146 234.849 261.427 235.81C260.709 236.753 259.785 237.224 258.655 237.224C257.526 237.224 256.602 236.753 255.883 235.81C255.165 234.849 254.805 233.649 254.805 232.212ZM261.189 232.212C261.189 231.111 260.956 230.205 260.489 229.496C260.032 228.787 259.421 228.432 258.655 228.432C257.89 228.432 257.279 228.787 256.821 229.496C256.355 230.205 256.121 231.111 256.121 232.212C256.121 233.313 256.355 234.223 256.821 234.942C257.279 235.642 257.89 235.992 258.655 235.992C259.421 235.992 260.032 235.637 260.489 234.928C260.956 234.209 261.189 233.304 261.189 232.212ZM263.733 232.212C263.733 230.756 264.093 229.557 264.811 228.614C265.53 227.671 266.454 227.2 267.583 227.2C268.713 227.2 269.637 227.676 270.355 228.628C271.074 229.571 271.433 230.765 271.433 232.212C271.433 233.649 271.074 234.849 270.355 235.81C269.637 236.753 268.713 237.224 267.583 237.224C266.454 237.224 265.53 236.753 264.811 235.81C264.093 234.849 263.733 233.649 263.733 232.212ZM270.117 232.212C270.117 231.111 269.884 230.205 269.417 229.496C268.96 228.787 268.349 228.432 267.583 228.432C266.818 228.432 266.207 228.787 265.749 229.496C265.283 230.205 265.049 231.111 265.049 232.212C265.049 233.313 265.283 234.223 265.749 234.942C266.207 235.642 266.818 235.992 267.583 235.992C268.349 235.992 268.96 235.637 269.417 234.928C269.884 234.209 270.117 233.304 270.117 232.212Z" fill="#CECECE"/>
<path d="M158 205.5H303C305.485 205.5 307.5 207.515 307.5 210V254C307.5 256.485 305.485 258.5 303 258.5H158C155.515 258.5 153.5 256.485 153.5 254V210C153.5 207.515 155.515 205.5 158 205.5Z" stroke="#E9E9E9"/>
<path d="M75 139.5H303C305.485 139.5 307.5 141.515 307.5 144V188C307.5 190.485 305.485 192.5 303 192.5H75C72.5147 192.5 70.5 190.485 70.5 188V144C70.5 141.515 72.5147 139.5 75 139.5Z" fill="white"/>
<path d="M89.458 171.224C88.702 171.224 88.0487 171.019 87.498 170.608C86.9473 170.197 86.56 169.628 86.336 168.9L87.554 168.396C87.8713 169.46 88.506 169.992 89.458 169.992C89.9807 169.992 90.4007 169.81 90.718 169.446C91.0447 169.073 91.208 168.592 91.208 168.004V160.976H92.496V167.892C92.496 168.928 92.2207 169.745 91.67 170.342C91.1287 170.93 90.3913 171.224 89.458 171.224ZM95.0638 168.9C95.0638 169.236 95.2038 169.516 95.4838 169.74C95.7731 169.964 96.1091 170.076 96.4918 170.076C97.0331 170.076 97.5138 169.875 97.9338 169.474C98.3631 169.073 98.5778 168.601 98.5778 168.06C98.1765 167.743 97.6165 167.584 96.8978 167.584C96.3751 167.584 95.9365 167.71 95.5818 167.962C95.2365 168.214 95.0638 168.527 95.0638 168.9ZM96.7298 163.916C97.6818 163.916 98.4331 164.173 98.9838 164.686C99.5345 165.19 99.8098 165.885 99.8098 166.772V171H98.5778V170.048H98.5218C97.9898 170.832 97.2805 171.224 96.3938 171.224C95.6378 171.224 95.0031 171 94.4898 170.552C93.9858 170.104 93.7338 169.544 93.7338 168.872C93.7338 168.163 93.9998 167.598 94.5318 167.178C95.0731 166.758 95.7918 166.548 96.6878 166.548C97.4531 166.548 98.0831 166.688 98.5778 166.968V166.674C98.5778 166.226 98.4005 165.848 98.0458 165.54C97.6911 165.223 97.2758 165.064 96.7998 165.064C96.0811 165.064 95.5118 165.367 95.0918 165.974L93.9578 165.26C94.5831 164.364 95.5071 163.916 96.7298 163.916ZM101.263 164.14H102.495V165.092H102.551C102.747 164.756 103.045 164.476 103.447 164.252C103.857 164.028 104.282 163.916 104.721 163.916C105.561 163.916 106.205 164.159 106.653 164.644C107.11 165.12 107.339 165.801 107.339 166.688V171H106.051V166.772C106.023 165.652 105.458 165.092 104.357 165.092C103.843 165.092 103.414 165.302 103.069 165.722C102.723 166.133 102.551 166.627 102.551 167.206V171H101.263V164.14ZM111.93 171.224C110.922 171.224 110.092 170.879 109.438 170.188C108.785 169.497 108.458 168.625 108.458 167.57C108.458 166.525 108.776 165.657 109.41 164.966C110.045 164.266 110.857 163.916 111.846 163.916C112.864 163.916 113.671 164.247 114.268 164.91C114.875 165.563 115.178 166.483 115.178 167.668L115.164 167.808H109.774C109.793 168.48 110.017 169.021 110.446 169.432C110.876 169.843 111.389 170.048 111.986 170.048C112.808 170.048 113.452 169.637 113.918 168.816L115.066 169.376C114.758 169.955 114.329 170.407 113.778 170.734C113.237 171.061 112.621 171.224 111.93 171.224ZM109.872 166.744H113.806C113.769 166.268 113.573 165.876 113.218 165.568C112.873 165.251 112.406 165.092 111.818 165.092C111.333 165.092 110.913 165.241 110.558 165.54C110.213 165.839 109.984 166.24 109.872 166.744ZM119.656 171V160.976H122.722C124.253 160.976 125.48 161.438 126.404 162.362C127.338 163.286 127.804 164.495 127.804 165.988C127.804 167.491 127.338 168.704 126.404 169.628C125.48 170.543 124.253 171 122.722 171H119.656ZM120.944 162.208V169.768H122.722C123.889 169.768 124.808 169.437 125.48 168.774C126.152 168.102 126.488 167.173 126.488 165.988C126.488 164.812 126.152 163.888 125.48 163.216C124.808 162.544 123.889 162.208 122.722 162.208H120.944ZM128.515 167.57C128.515 166.515 128.846 165.643 129.509 164.952C130.181 164.261 131.026 163.916 132.043 163.916C133.06 163.916 133.9 164.261 134.563 164.952C135.235 165.643 135.571 166.515 135.571 167.57C135.571 168.634 135.235 169.507 134.563 170.188C133.9 170.879 133.06 171.224 132.043 171.224C131.026 171.224 130.181 170.879 129.509 170.188C128.846 169.497 128.515 168.625 128.515 167.57ZM129.803 167.57C129.803 168.307 130.018 168.905 130.447 169.362C130.876 169.819 131.408 170.048 132.043 170.048C132.678 170.048 133.21 169.819 133.639 169.362C134.068 168.905 134.283 168.307 134.283 167.57C134.283 166.842 134.068 166.249 133.639 165.792C133.2 165.325 132.668 165.092 132.043 165.092C131.418 165.092 130.886 165.325 130.447 165.792C130.018 166.249 129.803 166.842 129.803 167.57ZM139.821 171.224C138.813 171.224 137.982 170.879 137.329 170.188C136.676 169.497 136.349 168.625 136.349 167.57C136.349 166.525 136.666 165.657 137.301 164.966C137.936 164.266 138.748 163.916 139.737 163.916C140.754 163.916 141.562 164.247 142.159 164.91C142.766 165.563 143.069 166.483 143.069 167.668L143.055 167.808H137.665C137.684 168.48 137.908 169.021 138.337 169.432C138.766 169.843 139.28 170.048 139.877 170.048C140.698 170.048 141.342 169.637 141.809 168.816L142.957 169.376C142.649 169.955 142.22 170.407 141.669 170.734C141.128 171.061 140.512 171.224 139.821 171.224ZM137.763 166.744H141.697C141.66 166.268 141.464 165.876 141.109 165.568C140.764 165.251 140.297 165.092 139.709 165.092C139.224 165.092 138.804 165.241 138.449 165.54C138.104 165.839 137.875 166.24 137.763 166.744Z" fill="#CECECE"/>
<path d="M75 139.5H303C305.485 139.5 307.5 141.515 307.5 144V188C307.5 190.485 305.485 192.5 303 192.5H75C72.5147 192.5 70.5 190.485 70.5 188V144C70.5 141.515 72.5147 139.5 75 139.5Z" stroke="#E9E9E9"/>
<rect x="136" y="281" width="98" height="44" rx="5" fill="#004DE1"/>
<path d="M158.624 298.952V302.984H160.992C161.589 302.984 162.096 302.792 162.512 302.408C162.928 302.013 163.136 301.528 163.136 300.952C163.136 300.419 162.939 299.955 162.544 299.56C162.16 299.155 161.675 298.952 161.088 298.952H158.624ZM158.624 309H157.152V297.544H161.056C162.048 297.544 162.891 297.875 163.584 298.536C164.288 299.187 164.64 299.992 164.64 300.952C164.64 301.741 164.379 302.445 163.856 303.064C163.344 303.672 162.693 304.061 161.904 304.232L161.872 304.28L165.088 308.936V309H163.344L160.256 304.36H158.624V309ZM169.51 309.256C168.358 309.256 167.408 308.861 166.662 308.072C165.915 307.283 165.542 306.285 165.542 305.08C165.542 303.885 165.904 302.893 166.63 302.104C167.355 301.304 168.283 300.904 169.414 300.904C170.576 300.904 171.499 301.283 172.182 302.04C172.875 302.787 173.222 303.837 173.222 305.192L173.206 305.352H167.046C167.067 306.12 167.323 306.739 167.814 307.208C168.304 307.677 168.891 307.912 169.574 307.912C170.512 307.912 171.248 307.443 171.782 306.504L173.094 307.144C172.742 307.805 172.251 308.323 171.622 308.696C171.003 309.069 170.299 309.256 169.51 309.256ZM167.158 304.136H171.654C171.611 303.592 171.387 303.144 170.982 302.792C170.587 302.429 170.054 302.248 169.382 302.248C168.827 302.248 168.347 302.419 167.942 302.76C167.547 303.101 167.286 303.56 167.158 304.136ZM178.166 307.912C178.891 307.912 179.483 307.651 179.942 307.128C180.422 306.605 180.662 305.923 180.662 305.08C180.662 304.259 180.422 303.581 179.942 303.048C179.473 302.515 178.881 302.248 178.166 302.248C177.462 302.248 176.87 302.515 176.39 303.048C175.91 303.581 175.67 304.259 175.67 305.08C175.67 305.912 175.91 306.589 176.39 307.112C176.87 307.645 177.462 307.912 178.166 307.912ZM178.118 312.712C177.681 312.712 177.27 312.653 176.886 312.536C176.502 312.429 176.15 312.275 175.83 312.072C175.521 311.869 175.254 311.629 175.03 311.352C174.806 311.075 174.635 310.765 174.518 310.424L175.91 309.848C176.07 310.307 176.347 310.675 176.742 310.952C177.137 311.229 177.595 311.368 178.118 311.368C178.918 311.368 179.542 311.128 179.99 310.648C180.438 310.168 180.662 309.507 180.662 308.664V307.912H180.598C180.321 308.328 179.942 308.659 179.462 308.904C178.993 309.139 178.481 309.256 177.926 309.256C176.902 309.256 176.022 308.856 175.286 308.056C174.561 307.235 174.198 306.243 174.198 305.08C174.198 303.917 174.561 302.931 175.286 302.12C176.022 301.309 176.902 300.904 177.926 300.904C178.481 300.904 178.993 301.027 179.462 301.272C179.942 301.507 180.321 301.832 180.598 302.248H180.662V301.16H182.07V308.664C182.07 309.923 181.713 310.909 180.998 311.624C180.273 312.349 179.313 312.712 178.118 312.712ZM185.769 298.456C185.769 298.744 185.667 298.989 185.465 299.192C185.262 299.395 185.017 299.496 184.729 299.496C184.441 299.496 184.195 299.395 183.993 299.192C183.79 298.989 183.689 298.744 183.689 298.456C183.689 298.168 183.79 297.923 183.993 297.72C184.195 297.517 184.441 297.416 184.729 297.416C185.017 297.416 185.262 297.517 185.465 297.72C185.667 297.923 185.769 298.168 185.769 298.456ZM185.465 301.16V309H183.993V301.16H185.465ZM193.38 306.824C193.38 307.507 193.082 308.083 192.484 308.552C191.887 309.021 191.135 309.256 190.228 309.256C189.439 309.256 188.746 309.053 188.148 308.648C187.551 308.232 187.124 307.688 186.868 307.016L188.18 306.456C188.372 306.925 188.65 307.293 189.012 307.56C189.386 307.816 189.791 307.944 190.228 307.944C190.698 307.944 191.087 307.843 191.396 307.64C191.716 307.437 191.876 307.197 191.876 306.92C191.876 306.419 191.492 306.051 190.724 305.816L189.38 305.48C187.855 305.096 187.092 304.36 187.092 303.272C187.092 302.557 187.38 301.987 187.956 301.56C188.543 301.123 189.29 300.904 190.196 300.904C190.89 300.904 191.514 301.069 192.068 301.4C192.634 301.731 193.028 302.173 193.252 302.728L191.94 303.272C191.791 302.941 191.546 302.685 191.204 302.504C190.874 302.312 190.5 302.216 190.084 302.216C189.7 302.216 189.354 302.312 189.044 302.504C188.746 302.696 188.596 302.931 188.596 303.208C188.596 303.656 189.018 303.976 189.86 304.168L191.044 304.472C192.602 304.856 193.38 305.64 193.38 306.824ZM197.688 309.128C197.048 309.128 196.514 308.931 196.088 308.536C195.672 308.141 195.458 307.592 195.448 306.888V302.504H194.072V301.16H195.448V298.76H196.92V301.16H198.84V302.504H196.92V306.408C196.92 306.931 197.021 307.288 197.224 307.48C197.426 307.661 197.656 307.752 197.911 307.752C198.029 307.752 198.141 307.741 198.248 307.72C198.365 307.688 198.472 307.651 198.568 307.608L199.032 308.92C198.648 309.059 198.2 309.128 197.688 309.128ZM203.682 309.256C202.53 309.256 201.58 308.861 200.834 308.072C200.087 307.283 199.714 306.285 199.714 305.08C199.714 303.885 200.076 302.893 200.802 302.104C201.527 301.304 202.455 300.904 203.586 300.904C204.748 300.904 205.671 301.283 206.354 302.04C207.047 302.787 207.394 303.837 207.394 305.192L207.378 305.352H201.218C201.239 306.12 201.495 306.739 201.986 307.208C202.476 307.677 203.063 307.912 203.746 307.912C204.684 307.912 205.42 307.443 205.954 306.504L207.266 307.144C206.914 307.805 206.423 308.323 205.794 308.696C205.175 309.069 204.471 309.256 203.682 309.256ZM201.33 304.136H205.826C205.783 303.592 205.559 303.144 205.154 302.792C204.759 302.429 204.226 302.248 203.554 302.248C202.999 302.248 202.519 302.419 202.114 302.76C201.719 303.101 201.458 303.56 201.33 304.136ZM210.212 309H208.74V301.16H210.148V302.44H210.212C210.361 302.024 210.665 301.672 211.124 301.384C211.593 301.085 212.052 300.936 212.5 300.936C212.926 300.936 213.289 301 213.588 301.128L213.14 302.552C212.958 302.477 212.67 302.44 212.276 302.44C211.721 302.44 211.236 302.664 210.82 303.112C210.414 303.56 210.212 304.083 210.212 304.68V309Z" fill="#FFFEF1"/>
<path d="M108.96 110.7C108.253 111.553 107.42 112.207 106.46 112.66C105.5 113.1 104.427 113.32 103.24 113.32C102.173 113.32 101.18 113.127 100.26 112.74C99.3533 112.353 98.5667 111.827 97.9 111.16C97.2333 110.493 96.7067 109.707 96.32 108.8C95.9333 107.88 95.74 106.893 95.74 105.84C95.74 104.787 95.9333 103.807 96.32 102.9C96.7067 101.98 97.2333 101.187 97.9 100.52C98.5667 99.8533 99.3533 99.3267 100.26 98.94C101.18 98.5533 102.173 98.36 103.24 98.36C104.387 98.36 105.393 98.56 106.26 98.96C107.14 99.36 107.92 99.94 108.6 100.7L106.7 102.54C106.273 102.047 105.78 101.653 105.22 101.36C104.673 101.067 104.02 100.92 103.26 100.92C102.593 100.92 101.967 101.04 101.38 101.28C100.793 101.507 100.28 101.833 99.84 102.26C99.4133 102.687 99.0733 103.207 98.82 103.82C98.5667 104.42 98.44 105.093 98.44 105.84C98.44 106.587 98.5667 107.267 98.82 107.88C99.0733 108.48 99.4133 108.993 99.84 109.42C100.28 109.847 100.793 110.18 101.38 110.42C101.967 110.647 102.593 110.76 103.26 110.76C104.06 110.76 104.767 110.6 105.38 110.28C106.007 109.947 106.56 109.48 107.04 108.88L108.96 110.7ZM110.612 103.2H113.072V104.56H113.232C113.352 104.32 113.512 104.1 113.712 103.9C113.912 103.7 114.132 103.527 114.372 103.38C114.626 103.233 114.892 103.12 115.172 103.04C115.466 102.96 115.752 102.92 116.032 102.92C116.379 102.92 116.672 102.953 116.912 103.02C117.166 103.087 117.379 103.173 117.552 103.28L116.852 105.66C116.692 105.58 116.512 105.52 116.312 105.48C116.126 105.427 115.892 105.4 115.612 105.4C115.252 105.4 114.926 105.473 114.632 105.62C114.339 105.753 114.086 105.947 113.872 106.2C113.672 106.453 113.512 106.753 113.392 107.1C113.286 107.433 113.232 107.8 113.232 108.2V113H110.612V103.2ZM127.431 110.64C126.978 111.44 126.365 112.087 125.591 112.58C124.831 113.073 123.898 113.32 122.791 113.32C122.045 113.32 121.351 113.193 120.711 112.94C120.085 112.673 119.538 112.307 119.071 111.84C118.605 111.373 118.238 110.827 117.971 110.2C117.718 109.56 117.591 108.86 117.591 108.1C117.591 107.393 117.718 106.727 117.971 106.1C118.225 105.46 118.578 104.907 119.031 104.44C119.485 103.96 120.018 103.58 120.631 103.3C121.258 103.02 121.945 102.88 122.691 102.88C123.478 102.88 124.178 103.013 124.791 103.28C125.405 103.533 125.918 103.893 126.331 104.36C126.745 104.813 127.058 105.353 127.271 105.98C127.485 106.607 127.591 107.287 127.591 108.02C127.591 108.113 127.591 108.193 127.591 108.26C127.578 108.34 127.571 108.413 127.571 108.48C127.558 108.547 127.551 108.62 127.551 108.7H120.171C120.225 109.1 120.331 109.447 120.491 109.74C120.665 110.02 120.871 110.26 121.111 110.46C121.365 110.647 121.638 110.787 121.931 110.88C122.225 110.96 122.525 111 122.831 111C123.431 111 123.925 110.867 124.311 110.6C124.711 110.32 125.025 109.973 125.251 109.56L127.431 110.64ZM125.051 106.84C125.038 106.667 124.978 106.473 124.871 106.26C124.778 106.047 124.631 105.847 124.431 105.66C124.245 105.473 124.005 105.32 123.711 105.2C123.431 105.08 123.091 105.02 122.691 105.02C122.131 105.02 121.638 105.18 121.211 105.5C120.785 105.82 120.485 106.267 120.311 106.84H125.051ZM135.402 111.96H135.242C134.936 112.333 134.562 112.653 134.122 112.92C133.696 113.187 133.142 113.32 132.462 113.32C131.956 113.32 131.476 113.233 131.022 113.06C130.582 112.9 130.196 112.673 129.862 112.38C129.529 112.087 129.269 111.733 129.082 111.32C128.896 110.907 128.802 110.453 128.802 109.96C128.802 109.453 128.902 109 129.102 108.6C129.302 108.187 129.582 107.833 129.942 107.54C130.302 107.247 130.722 107.027 131.202 106.88C131.696 106.72 132.229 106.64 132.802 106.64C133.442 106.64 133.969 106.693 134.382 106.8C134.796 106.893 135.136 106.993 135.402 107.1V106.8C135.402 106.28 135.196 105.853 134.782 105.52C134.369 105.173 133.856 105 133.242 105C132.336 105 131.569 105.38 130.942 106.14L129.042 104.84C130.082 103.533 131.502 102.88 133.302 102.88C134.822 102.88 135.982 103.24 136.782 103.96C137.582 104.667 137.982 105.72 137.982 107.12V113H135.402V111.96ZM135.402 109.02C135.096 108.873 134.776 108.76 134.442 108.68C134.122 108.587 133.769 108.54 133.382 108.54C132.756 108.54 132.269 108.68 131.922 108.96C131.589 109.227 131.422 109.56 131.422 109.96C131.422 110.36 131.582 110.68 131.902 110.92C132.236 111.16 132.616 111.28 133.042 111.28C133.389 111.28 133.709 111.22 134.002 111.1C134.296 110.967 134.542 110.8 134.742 110.6C134.956 110.387 135.116 110.147 135.222 109.88C135.342 109.6 135.402 109.313 135.402 109.02ZM140.95 105.44H139.23V103.2H140.95V100.2H143.57V103.2H145.97V105.44H143.57V109.24C143.57 109.467 143.59 109.68 143.63 109.88C143.683 110.067 143.777 110.227 143.91 110.36C144.097 110.573 144.363 110.68 144.71 110.68C144.937 110.68 145.117 110.66 145.25 110.62C145.383 110.567 145.51 110.5 145.63 110.42L146.37 112.72C146.063 112.867 145.73 112.973 145.37 113.04C145.023 113.12 144.637 113.16 144.21 113.16C143.717 113.16 143.27 113.087 142.87 112.94C142.483 112.78 142.157 112.567 141.89 112.3C141.263 111.7 140.95 110.847 140.95 109.74V105.44ZM157.08 110.64C156.626 111.44 156.013 112.087 155.24 112.58C154.48 113.073 153.546 113.32 152.44 113.32C151.693 113.32 151 113.193 150.36 112.94C149.733 112.673 149.186 112.307 148.72 111.84C148.253 111.373 147.886 110.827 147.62 110.2C147.366 109.56 147.24 108.86 147.24 108.1C147.24 107.393 147.366 106.727 147.62 106.1C147.873 105.46 148.226 104.907 148.68 104.44C149.133 103.96 149.666 103.58 150.28 103.3C150.906 103.02 151.593 102.88 152.34 102.88C153.126 102.88 153.826 103.013 154.44 103.28C155.053 103.533 155.566 103.893 155.98 104.36C156.393 104.813 156.706 105.353 156.92 105.98C157.133 106.607 157.24 107.287 157.24 108.02C157.24 108.113 157.24 108.193 157.24 108.26C157.226 108.34 157.22 108.413 157.22 108.48C157.206 108.547 157.2 108.62 157.2 108.7H149.82C149.873 109.1 149.98 109.447 150.14 109.74C150.313 110.02 150.52 110.26 150.76 110.46C151.013 110.647 151.286 110.787 151.58 110.88C151.873 110.96 152.173 111 152.48 111C153.08 111 153.573 110.867 153.96 110.6C154.36 110.32 154.673 109.973 154.9 109.56L157.08 110.64ZM154.7 106.84C154.686 106.667 154.626 106.473 154.52 106.26C154.426 106.047 154.28 105.847 154.08 105.66C153.893 105.473 153.653 105.32 153.36 105.2C153.08 105.08 152.74 105.02 152.34 105.02C151.78 105.02 151.286 105.18 150.86 105.5C150.433 105.82 150.133 106.267 149.96 106.84H154.7ZM166.388 112.52L162.268 103.2H165.248L167.728 109.14H167.868L170.248 103.2H173.168L167.028 117.32H164.208L166.388 112.52ZM178.612 102.88C179.372 102.88 180.065 103.013 180.692 103.28C181.332 103.533 181.878 103.893 182.332 104.36C182.798 104.813 183.158 105.36 183.412 106C183.678 106.64 183.812 107.34 183.812 108.1C183.812 108.86 183.678 109.56 183.412 110.2C183.158 110.84 182.798 111.393 182.332 111.86C181.878 112.313 181.332 112.673 180.692 112.94C180.065 113.193 179.372 113.32 178.612 113.32C177.852 113.32 177.152 113.193 176.512 112.94C175.885 112.673 175.338 112.313 174.872 111.86C174.418 111.393 174.058 110.84 173.792 110.2C173.538 109.56 173.412 108.86 173.412 108.1C173.412 107.34 173.538 106.64 173.792 106C174.058 105.36 174.418 104.813 174.872 104.36C175.338 103.893 175.885 103.533 176.512 103.28C177.152 103.013 177.852 102.88 178.612 102.88ZM178.612 110.9C178.945 110.9 179.265 110.84 179.572 110.72C179.892 110.587 180.172 110.4 180.412 110.16C180.652 109.92 180.838 109.627 180.972 109.28C181.118 108.933 181.192 108.54 181.192 108.1C181.192 107.66 181.118 107.267 180.972 106.92C180.838 106.573 180.652 106.28 180.412 106.04C180.172 105.8 179.892 105.62 179.572 105.5C179.265 105.367 178.945 105.3 178.612 105.3C178.265 105.3 177.938 105.367 177.632 105.5C177.325 105.62 177.052 105.8 176.812 106.04C176.572 106.28 176.378 106.573 176.232 106.92C176.098 107.267 176.032 107.66 176.032 108.1C176.032 108.54 176.098 108.933 176.232 109.28C176.378 109.627 176.572 109.92 176.812 110.16C177.052 110.4 177.325 110.587 177.632 110.72C177.938 110.84 178.265 110.9 178.612 110.9ZM192.177 111.72H192.017C191.711 112.213 191.297 112.607 190.777 112.9C190.257 113.18 189.664 113.32 188.997 113.32C187.757 113.32 186.831 112.94 186.217 112.18C185.617 111.42 185.317 110.407 185.317 109.14V103.2H187.937V108.82C187.937 109.527 188.091 110.053 188.397 110.4C188.717 110.733 189.177 110.9 189.777 110.9C190.137 110.9 190.451 110.827 190.717 110.68C190.997 110.52 191.231 110.313 191.417 110.06C191.617 109.793 191.764 109.487 191.857 109.14C191.964 108.78 192.017 108.4 192.017 108V103.2H194.637V113H192.177V111.72ZM196.882 103.2H199.342V104.56H199.502C199.622 104.32 199.782 104.1 199.982 103.9C200.182 103.7 200.402 103.527 200.642 103.38C200.895 103.233 201.162 103.12 201.442 103.04C201.735 102.96 202.022 102.92 202.302 102.92C202.648 102.92 202.942 102.953 203.182 103.02C203.435 103.087 203.648 103.173 203.822 103.28L203.122 105.66C202.962 105.58 202.782 105.52 202.582 105.48C202.395 105.427 202.162 105.4 201.882 105.4C201.522 105.4 201.195 105.473 200.902 105.62C200.608 105.753 200.355 105.947 200.142 106.2C199.942 106.453 199.782 106.753 199.662 107.1C199.555 107.433 199.502 107.8 199.502 108.2V113H196.882V103.2ZM215.461 111.96H215.301C214.994 112.333 214.621 112.653 214.181 112.92C213.754 113.187 213.201 113.32 212.521 113.32C212.014 113.32 211.534 113.233 211.081 113.06C210.641 112.9 210.254 112.673 209.921 112.38C209.587 112.087 209.327 111.733 209.141 111.32C208.954 110.907 208.861 110.453 208.861 109.96C208.861 109.453 208.961 109 209.161 108.6C209.361 108.187 209.641 107.833 210.001 107.54C210.361 107.247 210.781 107.027 211.261 106.88C211.754 106.72 212.287 106.64 212.861 106.64C213.501 106.64 214.027 106.693 214.441 106.8C214.854 106.893 215.194 106.993 215.461 107.1V106.8C215.461 106.28 215.254 105.853 214.841 105.52C214.427 105.173 213.914 105 213.301 105C212.394 105 211.627 105.38 211.001 106.14L209.101 104.84C210.141 103.533 211.561 102.88 213.361 102.88C214.881 102.88 216.041 103.24 216.841 103.96C217.641 104.667 218.041 105.72 218.041 107.12V113H215.461V111.96ZM215.461 109.02C215.154 108.873 214.834 108.76 214.501 108.68C214.181 108.587 213.827 108.54 213.441 108.54C212.814 108.54 212.327 108.68 211.981 108.96C211.647 109.227 211.481 109.56 211.481 109.96C211.481 110.36 211.641 110.68 211.961 110.92C212.294 111.16 212.674 111.28 213.101 111.28C213.447 111.28 213.767 111.22 214.061 111.1C214.354 110.967 214.601 110.8 214.801 110.6C215.014 110.387 215.174 110.147 215.281 109.88C215.401 109.6 215.461 109.313 215.461 109.02ZM229.326 110.5C228.9 111.327 228.3 112.007 227.526 112.54C226.766 113.06 225.813 113.32 224.666 113.32C223.906 113.32 223.206 113.193 222.566 112.94C221.94 112.673 221.393 112.307 220.926 111.84C220.473 111.373 220.113 110.827 219.846 110.2C219.593 109.56 219.466 108.86 219.466 108.1C219.466 107.34 219.593 106.64 219.846 106C220.113 105.36 220.473 104.813 220.926 104.36C221.393 103.893 221.94 103.533 222.566 103.28C223.206 103.013 223.906 102.88 224.666 102.88C225.8 102.88 226.753 103.14 227.526 103.66C228.3 104.18 228.866 104.853 229.226 105.68L226.826 106.68C226.6 106.227 226.306 105.887 225.946 105.66C225.6 105.42 225.16 105.3 224.626 105.3C224.28 105.3 223.953 105.367 223.646 105.5C223.34 105.633 223.066 105.82 222.826 106.06C222.6 106.3 222.42 106.593 222.286 106.94C222.153 107.287 222.086 107.673 222.086 108.1C222.086 108.527 222.153 108.913 222.286 109.26C222.42 109.607 222.6 109.9 222.826 110.14C223.066 110.38 223.34 110.567 223.646 110.7C223.953 110.833 224.28 110.9 224.626 110.9C225.173 110.9 225.633 110.78 226.006 110.54C226.393 110.287 226.7 109.927 226.926 109.46L229.326 110.5ZM240.127 110.5C239.7 111.327 239.1 112.007 238.327 112.54C237.567 113.06 236.614 113.32 235.467 113.32C234.707 113.32 234.007 113.193 233.367 112.94C232.74 112.673 232.194 112.307 231.727 111.84C231.274 111.373 230.914 110.827 230.647 110.2C230.394 109.56 230.267 108.86 230.267 108.1C230.267 107.34 230.394 106.64 230.647 106C230.914 105.36 231.274 104.813 231.727 104.36C232.194 103.893 232.74 103.533 233.367 103.28C234.007 103.013 234.707 102.88 235.467 102.88C236.6 102.88 237.554 103.14 238.327 103.66C239.1 104.18 239.667 104.853 240.027 105.68L237.627 106.68C237.4 106.227 237.107 105.887 236.747 105.66C236.4 105.42 235.96 105.3 235.427 105.3C235.08 105.3 234.754 105.367 234.447 105.5C234.14 105.633 233.867 105.82 233.627 106.06C233.4 106.3 233.22 106.593 233.087 106.94C232.954 107.287 232.887 107.673 232.887 108.1C232.887 108.527 232.954 108.913 233.087 109.26C233.22 109.607 233.4 109.9 233.627 110.14C233.867 110.38 234.14 110.567 234.447 110.7C234.754 110.833 235.08 110.9 235.427 110.9C235.974 110.9 236.434 110.78 236.807 110.54C237.194 110.287 237.5 109.927 237.727 109.46L240.127 110.5ZM246.268 102.88C247.028 102.88 247.721 103.013 248.348 103.28C248.988 103.533 249.534 103.893 249.988 104.36C250.454 104.813 250.814 105.36 251.068 106C251.334 106.64 251.468 107.34 251.468 108.1C251.468 108.86 251.334 109.56 251.068 110.2C250.814 110.84 250.454 111.393 249.988 111.86C249.534 112.313 248.988 112.673 248.348 112.94C247.721 113.193 247.028 113.32 246.268 113.32C245.508 113.32 244.808 113.193 244.168 112.94C243.541 112.673 242.994 112.313 242.528 111.86C242.074 111.393 241.714 110.84 241.448 110.2C241.194 109.56 241.068 108.86 241.068 108.1C241.068 107.34 241.194 106.64 241.448 106C241.714 105.36 242.074 104.813 242.528 104.36C242.994 103.893 243.541 103.533 244.168 103.28C244.808 103.013 245.508 102.88 246.268 102.88ZM246.268 110.9C246.601 110.9 246.921 110.84 247.228 110.72C247.548 110.587 247.828 110.4 248.068 110.16C248.308 109.92 248.494 109.627 248.628 109.28C248.774 108.933 248.848 108.54 248.848 108.1C248.848 107.66 248.774 107.267 248.628 106.92C248.494 106.573 248.308 106.28 248.068 106.04C247.828 105.8 247.548 105.62 247.228 105.5C246.921 105.367 246.601 105.3 246.268 105.3C245.921 105.3 245.594 105.367 245.288 105.5C244.981 105.62 244.708 105.8 244.468 106.04C244.228 106.28 244.034 106.573 243.888 106.92C243.754 107.267 243.688 107.66 243.688 108.1C243.688 108.54 243.754 108.933 243.888 109.28C244.034 109.627 244.228 109.92 244.468 110.16C244.708 110.4 244.981 110.587 245.288 110.72C245.594 110.84 245.921 110.9 246.268 110.9ZM259.834 111.72H259.674C259.367 112.213 258.954 112.607 258.434 112.9C257.914 113.18 257.32 113.32 256.654 113.32C255.414 113.32 254.487 112.94 253.874 112.18C253.274 111.42 252.974 110.407 252.974 109.14V103.2H255.594V108.82C255.594 109.527 255.747 110.053 256.054 110.4C256.374 110.733 256.834 110.9 257.434 110.9C257.794 110.9 258.107 110.827 258.374 110.68C258.654 110.52 258.887 110.313 259.074 110.06C259.274 109.793 259.42 109.487 259.514 109.14C259.62 108.78 259.674 108.4 259.674 108V103.2H262.294V113H259.834V111.72ZM266.998 104.48H267.158C267.465 103.987 267.878 103.6 268.398 103.32C268.918 103.027 269.511 102.88 270.178 102.88C270.791 102.88 271.331 102.98 271.798 103.18C272.265 103.38 272.645 103.667 272.938 104.04C273.245 104.4 273.471 104.84 273.618 105.36C273.778 105.867 273.858 106.433 273.858 107.06V113H271.238V107.38C271.238 106.673 271.078 106.153 270.758 105.82C270.451 105.473 269.998 105.3 269.398 105.3C269.038 105.3 268.718 105.38 268.438 105.54C268.171 105.687 267.938 105.893 267.738 106.16C267.551 106.413 267.405 106.72 267.298 107.08C267.205 107.427 267.158 107.8 267.158 108.2V113H264.538V103.2H266.998V104.48ZM276.595 105.44H274.875V103.2H276.595V100.2H279.215V103.2H281.615V105.44H279.215V109.24C279.215 109.467 279.235 109.68 279.275 109.88C279.328 110.067 279.421 110.227 279.555 110.36C279.741 110.573 280.008 110.68 280.355 110.68C280.581 110.68 280.761 110.66 280.895 110.62C281.028 110.567 281.155 110.5 281.275 110.42L282.015 112.72C281.708 112.867 281.375 112.973 281.015 113.04C280.668 113.12 280.281 113.16 279.855 113.16C279.361 113.16 278.915 113.087 278.515 112.94C278.128 112.78 277.801 112.567 277.535 112.3C276.908 111.7 276.595 110.847 276.595 109.74V105.44Z" fill="black"/>
</g>
<defs>
<clipPath id="clip0_372_1994">
<rect width="379" height="353" rx="5" fill="white"/>
</clipPath>
</defs>
</svg>
