<svg width="379" height="353" viewBox="0 0 379 353" fill="none" xmlns="http://www.w3.org/2000/svg">
<g clip-path="url(#clip0_372_2024)">
<rect width="379" height="353" rx="5" fill="#172263"/>
<rect x="42" y="46" width="294" height="341" rx="5" fill="white"/>
<path d="M75 111.5H303C305.485 111.5 307.5 113.515 307.5 116V213C307.5 215.485 305.485 217.5 303 217.5H75C72.5147 217.5 70.5 215.485 70.5 213V116C70.5 113.515 72.5147 111.5 75 111.5Z" fill="white"/>
<circle cx="109" cy="150" r="23" fill="#F3F3F3"/>
<path d="M91.726 195.224C90.242 195.224 89.0007 194.725 88.002 193.726C87.0127 192.727 86.518 191.481 86.518 189.988C86.518 188.495 87.0127 187.253 88.002 186.264C88.9913 185.256 90.2327 184.752 91.726 184.752C93.238 184.752 94.4653 185.298 95.408 186.39L94.484 187.286C93.7653 186.418 92.846 185.984 91.726 185.984C90.6153 185.984 89.6867 186.357 88.94 187.104C88.2027 187.841 87.834 188.803 87.834 189.988C87.834 191.173 88.2027 192.135 88.94 192.872C89.6867 193.619 90.6153 193.992 91.726 193.992C92.8927 193.992 93.9053 193.502 94.764 192.522L95.702 193.432C95.226 194.001 94.6427 194.445 93.952 194.762C93.2613 195.07 92.5193 195.224 91.726 195.224ZM96.3178 191.57C96.3178 190.515 96.6491 189.643 97.3118 188.952C97.9838 188.261 98.8284 187.916 99.8458 187.916C100.863 187.916 101.703 188.261 102.366 188.952C103.038 189.643 103.374 190.515 103.374 191.57C103.374 192.634 103.038 193.507 102.366 194.188C101.703 194.879 100.863 195.224 99.8458 195.224C98.8284 195.224 97.9838 194.879 97.3118 194.188C96.6491 193.497 96.3178 192.625 96.3178 191.57ZM97.6058 191.57C97.6058 192.307 97.8204 192.905 98.2498 193.362C98.6791 193.819 99.2111 194.048 99.8458 194.048C100.48 194.048 101.012 193.819 101.442 193.362C101.871 192.905 102.086 192.307 102.086 191.57C102.086 190.842 101.871 190.249 101.442 189.792C101.003 189.325 100.471 189.092 99.8458 189.092C99.2204 189.092 98.6884 189.325 98.2498 189.792C97.8204 190.249 97.6058 190.842 97.6058 191.57ZM105.695 195H104.407V188.14H105.639V189.092H105.695C105.891 188.756 106.19 188.476 106.591 188.252C107.002 188.028 107.408 187.916 107.809 187.916C108.313 187.916 108.756 188.033 109.139 188.266C109.522 188.499 109.802 188.821 109.979 189.232C110.548 188.355 111.337 187.916 112.345 187.916C113.138 187.916 113.75 188.159 114.179 188.644C114.608 189.129 114.823 189.82 114.823 190.716V195H113.535V190.912C113.535 190.268 113.418 189.806 113.185 189.526C112.952 189.237 112.56 189.092 112.009 189.092C111.514 189.092 111.099 189.302 110.763 189.722C110.427 190.142 110.259 190.637 110.259 191.206V195H108.971V190.912C108.971 190.268 108.854 189.806 108.621 189.526C108.388 189.237 107.996 189.092 107.445 189.092C106.95 189.092 106.535 189.302 106.199 189.722C105.863 190.142 105.695 190.637 105.695 191.206V195ZM119.689 194.048C120.305 194.048 120.823 193.815 121.243 193.348C121.663 192.891 121.873 192.298 121.873 191.57C121.873 190.851 121.663 190.259 121.243 189.792C120.823 189.325 120.305 189.092 119.689 189.092C119.064 189.092 118.541 189.325 118.121 189.792C117.71 190.259 117.505 190.851 117.505 191.57C117.505 192.298 117.71 192.895 118.121 193.362C118.541 193.819 119.064 194.048 119.689 194.048ZM119.899 195.224C119.395 195.224 118.933 195.117 118.513 194.902C118.102 194.687 117.785 194.403 117.561 194.048H117.505L117.561 195V198.024H116.273V188.14H117.505V189.092H117.561C117.785 188.737 118.102 188.453 118.513 188.238C118.933 188.023 119.395 187.916 119.899 187.916C120.804 187.916 121.57 188.271 122.195 188.98C122.839 189.699 123.161 190.562 123.161 191.57C123.161 192.587 122.839 193.451 122.195 194.16C121.57 194.869 120.804 195.224 119.899 195.224ZM125.279 192.9C125.279 193.236 125.419 193.516 125.699 193.74C125.988 193.964 126.324 194.076 126.707 194.076C127.248 194.076 127.729 193.875 128.149 193.474C128.578 193.073 128.793 192.601 128.793 192.06C128.391 191.743 127.831 191.584 127.113 191.584C126.59 191.584 126.151 191.71 125.797 191.962C125.451 192.214 125.279 192.527 125.279 192.9ZM126.945 187.916C127.897 187.916 128.648 188.173 129.199 188.686C129.749 189.19 130.025 189.885 130.025 190.772V195H128.793V194.048H128.737C128.205 194.832 127.495 195.224 126.609 195.224C125.853 195.224 125.218 195 124.705 194.552C124.201 194.104 123.949 193.544 123.949 192.872C123.949 192.163 124.215 191.598 124.747 191.178C125.288 190.758 126.007 190.548 126.903 190.548C127.668 190.548 128.298 190.688 128.793 190.968V190.674C128.793 190.226 128.615 189.848 128.261 189.54C127.906 189.223 127.491 189.064 127.015 189.064C126.296 189.064 125.727 189.367 125.307 189.974L124.173 189.26C124.798 188.364 125.722 187.916 126.945 187.916ZM131.477 188.14H132.709V189.092H132.765C132.961 188.756 133.26 188.476 133.661 188.252C134.072 188.028 134.497 187.916 134.935 187.916C135.775 187.916 136.419 188.159 136.867 188.644C137.325 189.12 137.553 189.801 137.553 190.688V195H136.265V190.772C136.237 189.652 135.673 189.092 134.571 189.092C134.058 189.092 133.629 189.302 133.283 189.722C132.938 190.133 132.765 190.627 132.765 191.206V195H131.477V188.14ZM145.061 188.14L140.763 198.024H139.433L141.029 194.566L138.201 188.14H139.601L141.645 193.068H141.673L143.661 188.14H145.061Z" fill="#CECECE"/>
<rect x="211" y="142.5" width="80" height="44" rx="5" fill="#004DE1"/>
<path d="M236.312 160.852L234.44 166.02H238.248L236.376 160.852H236.312ZM232.824 170.5H231.192L235.512 159.044H237.176L241.496 170.5H239.864L238.76 167.396H233.944L232.824 170.5ZM246.502 169.412C247.206 169.412 247.798 169.145 248.278 168.612C248.758 168.089 248.998 167.412 248.998 166.58C248.998 165.759 248.758 165.081 248.278 164.548C247.798 164.015 247.206 163.748 246.502 163.748C245.787 163.748 245.19 164.015 244.71 164.548C244.24 165.081 244.006 165.759 244.006 166.58C244.006 167.412 244.24 168.095 244.71 168.628C245.19 169.151 245.787 169.412 246.502 169.412ZM246.742 170.756C246.166 170.756 245.638 170.633 245.158 170.388C244.688 170.143 244.326 169.817 244.07 169.412H244.006L244.07 170.5V173.956H242.598V162.66H244.006V163.748H244.07C244.326 163.343 244.688 163.017 245.158 162.772C245.638 162.527 246.166 162.404 246.742 162.404C247.776 162.404 248.651 162.809 249.366 163.62C250.102 164.441 250.47 165.428 250.47 166.58C250.47 167.743 250.102 168.729 249.366 169.54C248.651 170.351 247.776 170.756 246.742 170.756ZM255.502 169.412C256.206 169.412 256.798 169.145 257.278 168.612C257.758 168.089 257.998 167.412 257.998 166.58C257.998 165.759 257.758 165.081 257.278 164.548C256.798 164.015 256.206 163.748 255.502 163.748C254.787 163.748 254.19 164.015 253.71 164.548C253.24 165.081 253.006 165.759 253.006 166.58C253.006 167.412 253.24 168.095 253.71 168.628C254.19 169.151 254.787 169.412 255.502 169.412ZM255.742 170.756C255.166 170.756 254.638 170.633 254.158 170.388C253.688 170.143 253.326 169.817 253.07 169.412H253.006L253.07 170.5V173.956H251.598V162.66H253.006V163.748H253.07C253.326 163.343 253.688 163.017 254.158 162.772C254.638 162.527 255.166 162.404 255.742 162.404C256.776 162.404 257.651 162.809 258.366 163.62C259.102 164.441 259.47 165.428 259.47 166.58C259.47 167.743 259.102 168.729 258.366 169.54C257.651 170.351 256.776 170.756 255.742 170.756ZM262.134 159.044V170.5H260.662V159.044H262.134ZM270.935 162.66L266.023 173.956H264.503L266.327 170.004L263.095 162.66H264.695L267.031 168.292H267.063L269.335 162.66H270.935Z" fill="#FFFEF1"/>
<path d="M75 111.5H303C305.485 111.5 307.5 113.515 307.5 116V213C307.5 215.485 305.485 217.5 303 217.5H75C72.5147 217.5 70.5 215.485 70.5 213V116C70.5 113.515 72.5147 111.5 75 111.5Z" stroke="#E9E9E9"/>
<path d="M75 228.5H303C305.485 228.5 307.5 230.515 307.5 233V330C307.5 332.485 305.485 334.5 303 334.5H75C72.5147 334.5 70.5 332.485 70.5 330V233C70.5 230.515 72.5147 228.5 75 228.5Z" fill="white"/>
<circle cx="109" cy="267" r="23" fill="#F3F3F3"/>
<path d="M91.726 312.224C90.242 312.224 89.0007 311.725 88.002 310.726C87.0127 309.727 86.518 308.481 86.518 306.988C86.518 305.495 87.0127 304.253 88.002 303.264C88.9913 302.256 90.2327 301.752 91.726 301.752C93.238 301.752 94.4653 302.298 95.408 303.39L94.484 304.286C93.7653 303.418 92.846 302.984 91.726 302.984C90.6153 302.984 89.6867 303.357 88.94 304.104C88.2027 304.841 87.834 305.803 87.834 306.988C87.834 308.173 88.2027 309.135 88.94 309.872C89.6867 310.619 90.6153 310.992 91.726 310.992C92.8927 310.992 93.9053 310.502 94.764 309.522L95.702 310.432C95.226 311.001 94.6427 311.445 93.952 311.762C93.2613 312.07 92.5193 312.224 91.726 312.224ZM96.3178 308.57C96.3178 307.515 96.6491 306.643 97.3118 305.952C97.9838 305.261 98.8284 304.916 99.8458 304.916C100.863 304.916 101.703 305.261 102.366 305.952C103.038 306.643 103.374 307.515 103.374 308.57C103.374 309.634 103.038 310.507 102.366 311.188C101.703 311.879 100.863 312.224 99.8458 312.224C98.8284 312.224 97.9838 311.879 97.3118 311.188C96.6491 310.497 96.3178 309.625 96.3178 308.57ZM97.6058 308.57C97.6058 309.307 97.8204 309.905 98.2498 310.362C98.6791 310.819 99.2111 311.048 99.8458 311.048C100.48 311.048 101.012 310.819 101.442 310.362C101.871 309.905 102.086 309.307 102.086 308.57C102.086 307.842 101.871 307.249 101.442 306.792C101.003 306.325 100.471 306.092 99.8458 306.092C99.2204 306.092 98.6884 306.325 98.2498 306.792C97.8204 307.249 97.6058 307.842 97.6058 308.57ZM105.695 312H104.407V305.14H105.639V306.092H105.695C105.891 305.756 106.19 305.476 106.591 305.252C107.002 305.028 107.408 304.916 107.809 304.916C108.313 304.916 108.756 305.033 109.139 305.266C109.522 305.499 109.802 305.821 109.979 306.232C110.548 305.355 111.337 304.916 112.345 304.916C113.138 304.916 113.75 305.159 114.179 305.644C114.608 306.129 114.823 306.82 114.823 307.716V312H113.535V307.912C113.535 307.268 113.418 306.806 113.185 306.526C112.952 306.237 112.56 306.092 112.009 306.092C111.514 306.092 111.099 306.302 110.763 306.722C110.427 307.142 110.259 307.637 110.259 308.206V312H108.971V307.912C108.971 307.268 108.854 306.806 108.621 306.526C108.388 306.237 107.996 306.092 107.445 306.092C106.95 306.092 106.535 306.302 106.199 306.722C105.863 307.142 105.695 307.637 105.695 308.206V312ZM119.689 311.048C120.305 311.048 120.823 310.815 121.243 310.348C121.663 309.891 121.873 309.298 121.873 308.57C121.873 307.851 121.663 307.259 121.243 306.792C120.823 306.325 120.305 306.092 119.689 306.092C119.064 306.092 118.541 306.325 118.121 306.792C117.71 307.259 117.505 307.851 117.505 308.57C117.505 309.298 117.71 309.895 118.121 310.362C118.541 310.819 119.064 311.048 119.689 311.048ZM119.899 312.224C119.395 312.224 118.933 312.117 118.513 311.902C118.102 311.687 117.785 311.403 117.561 311.048H117.505L117.561 312V315.024H116.273V305.14H117.505V306.092H117.561C117.785 305.737 118.102 305.453 118.513 305.238C118.933 305.023 119.395 304.916 119.899 304.916C120.804 304.916 121.57 305.271 122.195 305.98C122.839 306.699 123.161 307.562 123.161 308.57C123.161 309.587 122.839 310.451 122.195 311.16C121.57 311.869 120.804 312.224 119.899 312.224ZM125.279 309.9C125.279 310.236 125.419 310.516 125.699 310.74C125.988 310.964 126.324 311.076 126.707 311.076C127.248 311.076 127.729 310.875 128.149 310.474C128.578 310.073 128.793 309.601 128.793 309.06C128.391 308.743 127.831 308.584 127.113 308.584C126.59 308.584 126.151 308.71 125.797 308.962C125.451 309.214 125.279 309.527 125.279 309.9ZM126.945 304.916C127.897 304.916 128.648 305.173 129.199 305.686C129.749 306.19 130.025 306.885 130.025 307.772V312H128.793V311.048H128.737C128.205 311.832 127.495 312.224 126.609 312.224C125.853 312.224 125.218 312 124.705 311.552C124.201 311.104 123.949 310.544 123.949 309.872C123.949 309.163 124.215 308.598 124.747 308.178C125.288 307.758 126.007 307.548 126.903 307.548C127.668 307.548 128.298 307.688 128.793 307.968V307.674C128.793 307.226 128.615 306.848 128.261 306.54C127.906 306.223 127.491 306.064 127.015 306.064C126.296 306.064 125.727 306.367 125.307 306.974L124.173 306.26C124.798 305.364 125.722 304.916 126.945 304.916ZM131.477 305.14H132.709V306.092H132.765C132.961 305.756 133.26 305.476 133.661 305.252C134.072 305.028 134.497 304.916 134.935 304.916C135.775 304.916 136.419 305.159 136.867 305.644C137.325 306.12 137.553 306.801 137.553 307.688V312H136.265V307.772C136.237 306.652 135.673 306.092 134.571 306.092C134.058 306.092 133.629 306.302 133.283 306.722C132.938 307.133 132.765 307.627 132.765 308.206V312H131.477V305.14ZM145.061 305.14L140.763 315.024H139.433L141.029 311.566L138.201 305.14H139.601L141.645 310.068H141.673L143.661 305.14H145.061Z" fill="#CECECE"/>
<rect x="211" y="259.5" width="80" height="44" rx="5" fill="#004DE1"/>
<path d="M236.312 277.852L234.44 283.02H238.248L236.376 277.852H236.312ZM232.824 287.5H231.192L235.512 276.044H237.176L241.496 287.5H239.864L238.76 284.396H233.944L232.824 287.5ZM246.502 286.412C247.206 286.412 247.798 286.145 248.278 285.612C248.758 285.089 248.998 284.412 248.998 283.58C248.998 282.759 248.758 282.081 248.278 281.548C247.798 281.015 247.206 280.748 246.502 280.748C245.787 280.748 245.19 281.015 244.71 281.548C244.24 282.081 244.006 282.759 244.006 283.58C244.006 284.412 244.24 285.095 244.71 285.628C245.19 286.151 245.787 286.412 246.502 286.412ZM246.742 287.756C246.166 287.756 245.638 287.633 245.158 287.388C244.688 287.143 244.326 286.817 244.07 286.412H244.006L244.07 287.5V290.956H242.598V279.66H244.006V280.748H244.07C244.326 280.343 244.688 280.017 245.158 279.772C245.638 279.527 246.166 279.404 246.742 279.404C247.776 279.404 248.651 279.809 249.366 280.62C250.102 281.441 250.47 282.428 250.47 283.58C250.47 284.743 250.102 285.729 249.366 286.54C248.651 287.351 247.776 287.756 246.742 287.756ZM255.502 286.412C256.206 286.412 256.798 286.145 257.278 285.612C257.758 285.089 257.998 284.412 257.998 283.58C257.998 282.759 257.758 282.081 257.278 281.548C256.798 281.015 256.206 280.748 255.502 280.748C254.787 280.748 254.19 281.015 253.71 281.548C253.24 282.081 253.006 282.759 253.006 283.58C253.006 284.412 253.24 285.095 253.71 285.628C254.19 286.151 254.787 286.412 255.502 286.412ZM255.742 287.756C255.166 287.756 254.638 287.633 254.158 287.388C253.688 287.143 253.326 286.817 253.07 286.412H253.006L253.07 287.5V290.956H251.598V279.66H253.006V280.748H253.07C253.326 280.343 253.688 280.017 254.158 279.772C254.638 279.527 255.166 279.404 255.742 279.404C256.776 279.404 257.651 279.809 258.366 280.62C259.102 281.441 259.47 282.428 259.47 283.58C259.47 284.743 259.102 285.729 258.366 286.54C257.651 287.351 256.776 287.756 255.742 287.756ZM262.134 276.044V287.5H260.662V276.044H262.134ZM270.935 279.66L266.023 290.956H264.503L266.327 287.004L263.095 279.66H264.695L267.031 285.292H267.063L269.335 279.66H270.935Z" fill="#FFFEF1"/>
<path d="M75 228.5H303C305.485 228.5 307.5 230.515 307.5 233V330C307.5 332.485 305.485 334.5 303 334.5H75C72.5147 334.5 70.5 332.485 70.5 330V233C70.5 230.515 72.5147 228.5 75 228.5Z" stroke="#E9E9E9"/>
<path d="M94.14 75.24V78.56H99.88V81.12H94.14V84.44H100.52V87H91.44V72.68H100.52V75.24H94.14ZM104.927 82.02L101.567 77.2H104.667L106.447 79.92H106.587L108.267 77.2H111.467L108.027 82.02L111.467 87H108.387L106.547 84.2H106.407L104.627 87H101.527L104.927 82.02ZM112.681 77.2H115.141V78.38H115.301C115.541 77.9667 115.914 77.6133 116.421 77.32C116.927 77.0267 117.554 76.88 118.301 76.88C118.927 76.88 119.521 77.0133 120.081 77.28C120.654 77.5333 121.154 77.8933 121.581 78.36C122.021 78.8133 122.367 79.36 122.621 80C122.874 80.64 123.001 81.34 123.001 82.1C123.001 82.86 122.874 83.56 122.621 84.2C122.367 84.84 122.021 85.3933 121.581 85.86C121.154 86.3133 120.654 86.6733 120.081 86.94C119.521 87.1933 118.927 87.32 118.301 87.32C117.554 87.32 116.927 87.1733 116.421 86.88C115.914 86.5867 115.541 86.2333 115.301 85.82H115.141L115.301 87.22V91.32H112.681V77.2ZM117.761 84.9C118.107 84.9 118.434 84.8333 118.741 84.7C119.061 84.5667 119.341 84.38 119.581 84.14C119.821 83.9 120.014 83.6067 120.161 83.26C120.307 82.9133 120.381 82.5267 120.381 82.1C120.381 81.6733 120.307 81.2867 120.161 80.94C120.014 80.5933 119.821 80.3 119.581 80.06C119.341 79.82 119.061 79.6333 118.741 79.5C118.434 79.3667 118.107 79.3 117.761 79.3C117.414 79.3 117.081 79.3667 116.761 79.5C116.454 79.62 116.181 79.8 115.941 80.04C115.701 80.28 115.507 80.5733 115.361 80.92C115.214 81.2667 115.141 81.66 115.141 82.1C115.141 82.54 115.214 82.9333 115.361 83.28C115.507 83.6267 115.701 83.92 115.941 84.16C116.181 84.4 116.454 84.5867 116.761 84.72C117.081 84.84 117.414 84.9 117.761 84.9ZM124.479 87V72.68H127.099V87H124.479ZM133.885 76.88C134.645 76.88 135.338 77.0133 135.965 77.28C136.605 77.5333 137.152 77.8933 137.605 78.36C138.072 78.8133 138.432 79.36 138.685 80C138.952 80.64 139.085 81.34 139.085 82.1C139.085 82.86 138.952 83.56 138.685 84.2C138.432 84.84 138.072 85.3933 137.605 85.86C137.152 86.3133 136.605 86.6733 135.965 86.94C135.338 87.1933 134.645 87.32 133.885 87.32C133.125 87.32 132.425 87.1933 131.785 86.94C131.158 86.6733 130.612 86.3133 130.145 85.86C129.692 85.3933 129.332 84.84 129.065 84.2C128.812 83.56 128.685 82.86 128.685 82.1C128.685 81.34 128.812 80.64 129.065 80C129.332 79.36 129.692 78.8133 130.145 78.36C130.612 77.8933 131.158 77.5333 131.785 77.28C132.425 77.0133 133.125 76.88 133.885 76.88ZM133.885 84.9C134.218 84.9 134.538 84.84 134.845 84.72C135.165 84.5867 135.445 84.4 135.685 84.16C135.925 83.92 136.112 83.6267 136.245 83.28C136.392 82.9333 136.465 82.54 136.465 82.1C136.465 81.66 136.392 81.2667 136.245 80.92C136.112 80.5733 135.925 80.28 135.685 80.04C135.445 79.8 135.165 79.62 134.845 79.5C134.538 79.3667 134.218 79.3 133.885 79.3C133.538 79.3 133.212 79.3667 132.905 79.5C132.598 79.62 132.325 79.8 132.085 80.04C131.845 80.28 131.652 80.5733 131.505 80.92C131.372 81.2667 131.305 81.66 131.305 82.1C131.305 82.54 131.372 82.9333 131.505 83.28C131.652 83.6267 131.845 83.92 132.085 84.16C132.325 84.4 132.598 84.5867 132.905 84.72C133.212 84.84 133.538 84.9 133.885 84.9ZM140.573 77.2H143.033V78.56H143.193C143.313 78.32 143.473 78.1 143.673 77.9C143.873 77.7 144.093 77.5267 144.333 77.38C144.586 77.2333 144.853 77.12 145.133 77.04C145.426 76.96 145.713 76.92 145.993 76.92C146.34 76.92 146.633 76.9533 146.873 77.02C147.126 77.0867 147.34 77.1733 147.513 77.28L146.813 79.66C146.653 79.58 146.473 79.52 146.273 79.48C146.086 79.4267 145.853 79.4 145.573 79.4C145.213 79.4 144.886 79.4733 144.593 79.62C144.3 79.7533 144.046 79.9467 143.833 80.2C143.633 80.4533 143.473 80.7533 143.353 81.1C143.246 81.4333 143.193 81.8 143.193 82.2V87H140.573V77.2ZM157.392 84.64C156.939 85.44 156.326 86.0867 155.552 86.58C154.792 87.0733 153.859 87.32 152.752 87.32C152.006 87.32 151.312 87.1933 150.672 86.94C150.046 86.6733 149.499 86.3067 149.032 85.84C148.566 85.3733 148.199 84.8267 147.932 84.2C147.679 83.56 147.552 82.86 147.552 82.1C147.552 81.3933 147.679 80.7267 147.932 80.1C148.186 79.46 148.539 78.9067 148.992 78.44C149.446 77.96 149.979 77.58 150.592 77.3C151.219 77.02 151.906 76.88 152.652 76.88C153.439 76.88 154.139 77.0133 154.752 77.28C155.366 77.5333 155.879 77.8933 156.292 78.36C156.706 78.8133 157.019 79.3533 157.232 79.98C157.446 80.6067 157.552 81.2867 157.552 82.02C157.552 82.1133 157.552 82.1933 157.552 82.26C157.539 82.34 157.532 82.4133 157.532 82.48C157.519 82.5467 157.512 82.62 157.512 82.7H150.132C150.186 83.1 150.292 83.4467 150.452 83.74C150.626 84.02 150.832 84.26 151.072 84.46C151.326 84.6467 151.599 84.7867 151.892 84.88C152.186 84.96 152.486 85 152.792 85C153.392 85 153.886 84.8667 154.272 84.6C154.672 84.32 154.986 83.9733 155.212 83.56L157.392 84.64ZM155.012 80.84C154.999 80.6667 154.939 80.4733 154.832 80.26C154.739 80.0467 154.592 79.8467 154.392 79.66C154.206 79.4733 153.966 79.32 153.672 79.2C153.392 79.08 153.052 79.02 152.652 79.02C152.092 79.02 151.599 79.18 151.172 79.5C150.746 79.82 150.446 80.2667 150.272 80.84H155.012ZM168.26 76.88C169.02 76.88 169.713 77.0133 170.34 77.28C170.98 77.5333 171.527 77.8933 171.98 78.36C172.447 78.8133 172.807 79.36 173.06 80C173.327 80.64 173.46 81.34 173.46 82.1C173.46 82.86 173.327 83.56 173.06 84.2C172.807 84.84 172.447 85.3933 171.98 85.86C171.527 86.3133 170.98 86.6733 170.34 86.94C169.713 87.1933 169.02 87.32 168.26 87.32C167.5 87.32 166.8 87.1933 166.16 86.94C165.533 86.6733 164.987 86.3133 164.52 85.86C164.067 85.3933 163.707 84.84 163.44 84.2C163.187 83.56 163.06 82.86 163.06 82.1C163.06 81.34 163.187 80.64 163.44 80C163.707 79.36 164.067 78.8133 164.52 78.36C164.987 77.8933 165.533 77.5333 166.16 77.28C166.8 77.0133 167.5 76.88 168.26 76.88ZM168.26 84.9C168.593 84.9 168.913 84.84 169.22 84.72C169.54 84.5867 169.82 84.4 170.06 84.16C170.3 83.92 170.487 83.6267 170.62 83.28C170.767 82.9333 170.84 82.54 170.84 82.1C170.84 81.66 170.767 81.2667 170.62 80.92C170.487 80.5733 170.3 80.28 170.06 80.04C169.82 79.8 169.54 79.62 169.22 79.5C168.913 79.3667 168.593 79.3 168.26 79.3C167.913 79.3 167.587 79.3667 167.28 79.5C166.973 79.62 166.7 79.8 166.46 80.04C166.22 80.28 166.027 80.5733 165.88 80.92C165.747 81.2667 165.68 81.66 165.68 82.1C165.68 82.54 165.747 82.9333 165.88 83.28C166.027 83.6267 166.22 83.92 166.46 84.16C166.7 84.4 166.973 84.5867 167.28 84.72C167.587 84.84 167.913 84.9 168.26 84.9ZM174.966 77.2H177.426V78.38H177.586C177.826 77.9667 178.199 77.6133 178.706 77.32C179.212 77.0267 179.839 76.88 180.586 76.88C181.212 76.88 181.806 77.0133 182.366 77.28C182.939 77.5333 183.439 77.8933 183.866 78.36C184.306 78.8133 184.652 79.36 184.906 80C185.159 80.64 185.286 81.34 185.286 82.1C185.286 82.86 185.159 83.56 184.906 84.2C184.652 84.84 184.306 85.3933 183.866 85.86C183.439 86.3133 182.939 86.6733 182.366 86.94C181.806 87.1933 181.212 87.32 180.586 87.32C179.839 87.32 179.212 87.1733 178.706 86.88C178.199 86.5867 177.826 86.2333 177.586 85.82H177.426L177.586 87.22V91.32H174.966V77.2ZM180.046 84.9C180.392 84.9 180.719 84.8333 181.026 84.7C181.346 84.5667 181.626 84.38 181.866 84.14C182.106 83.9 182.299 83.6067 182.446 83.26C182.592 82.9133 182.666 82.5267 182.666 82.1C182.666 81.6733 182.592 81.2867 182.446 80.94C182.299 80.5933 182.106 80.3 181.866 80.06C181.626 79.82 181.346 79.6333 181.026 79.5C180.719 79.3667 180.392 79.3 180.046 79.3C179.699 79.3 179.366 79.3667 179.046 79.5C178.739 79.62 178.466 79.8 178.226 80.04C177.986 80.28 177.792 80.5733 177.646 80.92C177.499 81.2667 177.426 81.66 177.426 82.1C177.426 82.54 177.499 82.9333 177.646 83.28C177.792 83.6267 177.986 83.92 178.226 84.16C178.466 84.4 178.739 84.5867 179.046 84.72C179.366 84.84 179.699 84.9 180.046 84.9ZM186.685 77.2H189.145V78.38H189.305C189.545 77.9667 189.918 77.6133 190.425 77.32C190.931 77.0267 191.558 76.88 192.305 76.88C192.931 76.88 193.525 77.0133 194.085 77.28C194.658 77.5333 195.158 77.8933 195.585 78.36C196.025 78.8133 196.371 79.36 196.625 80C196.878 80.64 197.005 81.34 197.005 82.1C197.005 82.86 196.878 83.56 196.625 84.2C196.371 84.84 196.025 85.3933 195.585 85.86C195.158 86.3133 194.658 86.6733 194.085 86.94C193.525 87.1933 192.931 87.32 192.305 87.32C191.558 87.32 190.931 87.1733 190.425 86.88C189.918 86.5867 189.545 86.2333 189.305 85.82H189.145L189.305 87.22V91.32H186.685V77.2ZM191.765 84.9C192.111 84.9 192.438 84.8333 192.745 84.7C193.065 84.5667 193.345 84.38 193.585 84.14C193.825 83.9 194.018 83.6067 194.165 83.26C194.311 82.9133 194.385 82.5267 194.385 82.1C194.385 81.6733 194.311 81.2867 194.165 80.94C194.018 80.5933 193.825 80.3 193.585 80.06C193.345 79.82 193.065 79.6333 192.745 79.5C192.438 79.3667 192.111 79.3 191.765 79.3C191.418 79.3 191.085 79.3667 190.765 79.5C190.458 79.62 190.185 79.8 189.945 80.04C189.705 80.28 189.511 80.5733 189.365 80.92C189.218 81.2667 189.145 81.66 189.145 82.1C189.145 82.54 189.218 82.9333 189.365 83.28C189.511 83.6267 189.705 83.92 189.945 84.16C190.185 84.4 190.458 84.5867 190.765 84.72C191.085 84.84 191.418 84.9 191.765 84.9ZM203.319 76.88C204.079 76.88 204.772 77.0133 205.399 77.28C206.039 77.5333 206.585 77.8933 207.039 78.36C207.505 78.8133 207.865 79.36 208.119 80C208.385 80.64 208.519 81.34 208.519 82.1C208.519 82.86 208.385 83.56 208.119 84.2C207.865 84.84 207.505 85.3933 207.039 85.86C206.585 86.3133 206.039 86.6733 205.399 86.94C204.772 87.1933 204.079 87.32 203.319 87.32C202.559 87.32 201.859 87.1933 201.219 86.94C200.592 86.6733 200.045 86.3133 199.579 85.86C199.125 85.3933 198.765 84.84 198.499 84.2C198.245 83.56 198.119 82.86 198.119 82.1C198.119 81.34 198.245 80.64 198.499 80C198.765 79.36 199.125 78.8133 199.579 78.36C200.045 77.8933 200.592 77.5333 201.219 77.28C201.859 77.0133 202.559 76.88 203.319 76.88ZM203.319 84.9C203.652 84.9 203.972 84.84 204.279 84.72C204.599 84.5867 204.879 84.4 205.119 84.16C205.359 83.92 205.545 83.6267 205.679 83.28C205.825 82.9333 205.899 82.54 205.899 82.1C205.899 81.66 205.825 81.2667 205.679 80.92C205.545 80.5733 205.359 80.28 205.119 80.04C204.879 79.8 204.599 79.62 204.279 79.5C203.972 79.3667 203.652 79.3 203.319 79.3C202.972 79.3 202.645 79.3667 202.339 79.5C202.032 79.62 201.759 79.8 201.519 80.04C201.279 80.28 201.085 80.5733 200.939 80.92C200.805 81.2667 200.739 81.66 200.739 82.1C200.739 82.54 200.805 82.9333 200.939 83.28C201.085 83.6267 201.279 83.92 201.519 84.16C201.759 84.4 202.032 84.5867 202.339 84.72C202.645 84.84 202.972 84.9 203.319 84.9ZM210.007 77.2H212.467V78.56H212.627C212.747 78.32 212.907 78.1 213.107 77.9C213.307 77.7 213.527 77.5267 213.767 77.38C214.02 77.2333 214.287 77.12 214.567 77.04C214.86 76.96 215.147 76.92 215.427 76.92C215.773 76.92 216.067 76.9533 216.307 77.02C216.56 77.0867 216.773 77.1733 216.947 77.28L216.247 79.66C216.087 79.58 215.907 79.52 215.707 79.48C215.52 79.4267 215.287 79.4 215.007 79.4C214.647 79.4 214.32 79.4733 214.027 79.62C213.733 79.7533 213.48 79.9467 213.267 80.2C213.067 80.4533 212.907 80.7533 212.787 81.1C212.68 81.4333 212.627 81.8 212.627 82.2V87H210.007V77.2ZM219.427 79.44H217.707V77.2H219.427V74.2H222.047V77.2H224.447V79.44H222.047V83.24C222.047 83.4667 222.067 83.68 222.107 83.88C222.16 84.0667 222.253 84.2267 222.387 84.36C222.573 84.5733 222.84 84.68 223.187 84.68C223.413 84.68 223.593 84.66 223.727 84.62C223.86 84.5667 223.987 84.5 224.107 84.42L224.847 86.72C224.54 86.8667 224.207 86.9733 223.847 87.04C223.5 87.12 223.113 87.16 222.687 87.16C222.193 87.16 221.747 87.0867 221.347 86.94C220.96 86.78 220.633 86.5667 220.367 86.3C219.74 85.7 219.427 84.8467 219.427 83.74V79.44ZM233.154 85.72H232.994C232.687 86.2133 232.274 86.6067 231.754 86.9C231.234 87.18 230.641 87.32 229.974 87.32C228.734 87.32 227.807 86.94 227.194 86.18C226.594 85.42 226.294 84.4067 226.294 83.14V77.2H228.914V82.82C228.914 83.5267 229.067 84.0533 229.374 84.4C229.694 84.7333 230.154 84.9 230.754 84.9C231.114 84.9 231.427 84.8267 231.694 84.68C231.974 84.52 232.207 84.3133 232.394 84.06C232.594 83.7933 232.741 83.4867 232.834 83.14C232.941 82.78 232.994 82.4 232.994 82V77.2H235.614V87H233.154V85.72ZM240.318 78.48H240.478C240.785 77.9867 241.198 77.6 241.718 77.32C242.238 77.0267 242.832 76.88 243.498 76.88C244.112 76.88 244.652 76.98 245.118 77.18C245.585 77.38 245.965 77.6667 246.258 78.04C246.565 78.4 246.792 78.84 246.938 79.36C247.098 79.8667 247.178 80.4333 247.178 81.06V87H244.558V81.38C244.558 80.6733 244.398 80.1533 244.078 79.82C243.772 79.4733 243.318 79.3 242.718 79.3C242.358 79.3 242.038 79.38 241.758 79.54C241.492 79.6867 241.258 79.8933 241.058 80.16C240.872 80.4133 240.725 80.72 240.618 81.08C240.525 81.4267 240.478 81.8 240.478 82.2V87H237.858V77.2H240.318V78.48ZM250.803 75.78C250.576 75.78 250.356 75.74 250.143 75.66C249.943 75.5667 249.763 75.4467 249.603 75.3C249.456 75.14 249.336 74.96 249.243 74.76C249.163 74.56 249.123 74.34 249.123 74.1C249.123 73.86 249.163 73.64 249.243 73.44C249.336 73.24 249.456 73.0667 249.603 72.92C249.763 72.76 249.943 72.64 250.143 72.56C250.356 72.4667 250.576 72.42 250.803 72.42C251.269 72.42 251.669 72.5867 252.003 72.92C252.336 73.24 252.503 73.6333 252.503 74.1C252.503 74.5667 252.336 74.9667 252.003 75.3C251.669 75.62 251.269 75.78 250.803 75.78ZM249.503 87V77.2H252.123V87H249.503ZM255.501 79.44H253.781V77.2H255.501V74.2H258.121V77.2H260.521V79.44H258.121V83.24C258.121 83.4667 258.141 83.68 258.181 83.88C258.234 84.0667 258.327 84.2267 258.461 84.36C258.647 84.5733 258.914 84.68 259.261 84.68C259.487 84.68 259.667 84.66 259.801 84.62C259.934 84.5667 260.061 84.5 260.181 84.42L260.921 86.72C260.614 86.8667 260.281 86.9733 259.921 87.04C259.574 87.12 259.187 87.16 258.761 87.16C258.267 87.16 257.821 87.0867 257.421 86.94C257.034 86.78 256.707 86.5667 256.441 86.3C255.814 85.7 255.501 84.8467 255.501 83.74V79.44ZM264.006 75.78C263.779 75.78 263.559 75.74 263.346 75.66C263.146 75.5667 262.966 75.4467 262.806 75.3C262.659 75.14 262.539 74.96 262.446 74.76C262.366 74.56 262.326 74.34 262.326 74.1C262.326 73.86 262.366 73.64 262.446 73.44C262.539 73.24 262.659 73.0667 262.806 72.92C262.966 72.76 263.146 72.64 263.346 72.56C263.559 72.4667 263.779 72.42 264.006 72.42C264.472 72.42 264.872 72.5867 265.206 72.92C265.539 73.24 265.706 73.6333 265.706 74.1C265.706 74.5667 265.539 74.9667 265.206 75.3C264.872 75.62 264.472 75.78 264.006 75.78ZM262.706 87V77.2H265.326V87H262.706ZM276.904 84.64C276.451 85.44 275.837 86.0867 275.064 86.58C274.304 87.0733 273.371 87.32 272.264 87.32C271.517 87.32 270.824 87.1933 270.184 86.94C269.557 86.6733 269.011 86.3067 268.544 85.84C268.077 85.3733 267.711 84.8267 267.444 84.2C267.191 83.56 267.064 82.86 267.064 82.1C267.064 81.3933 267.191 80.7267 267.444 80.1C267.697 79.46 268.051 78.9067 268.504 78.44C268.957 77.96 269.491 77.58 270.104 77.3C270.731 77.02 271.417 76.88 272.164 76.88C272.951 76.88 273.651 77.0133 274.264 77.28C274.877 77.5333 275.391 77.8933 275.804 78.36C276.217 78.8133 276.531 79.3533 276.744 79.98C276.957 80.6067 277.064 81.2867 277.064 82.02C277.064 82.1133 277.064 82.1933 277.064 82.26C277.051 82.34 277.044 82.4133 277.044 82.48C277.031 82.5467 277.024 82.62 277.024 82.7H269.644C269.697 83.1 269.804 83.4467 269.964 83.74C270.137 84.02 270.344 84.26 270.584 84.46C270.837 84.6467 271.111 84.7867 271.404 84.88C271.697 84.96 271.997 85 272.304 85C272.904 85 273.397 84.8667 273.784 84.6C274.184 84.32 274.497 83.9733 274.724 83.56L276.904 84.64ZM274.524 80.84C274.511 80.6667 274.451 80.4733 274.344 80.26C274.251 80.0467 274.104 79.8467 273.904 79.66C273.717 79.4733 273.477 79.32 273.184 79.2C272.904 79.08 272.564 79.02 272.164 79.02C271.604 79.02 271.111 79.18 270.684 79.5C270.257 79.82 269.957 80.2667 269.784 80.84H274.524ZM282.715 87.32C282.075 87.32 281.502 87.24 280.995 87.08C280.502 86.92 280.068 86.7133 279.695 86.46C279.335 86.1933 279.028 85.8933 278.775 85.56C278.522 85.2133 278.328 84.8667 278.195 84.52L280.535 83.52C280.762 84.0267 281.062 84.4067 281.435 84.66C281.822 84.9 282.248 85.02 282.715 85.02C283.195 85.02 283.575 84.9333 283.855 84.76C284.135 84.5867 284.275 84.38 284.275 84.14C284.275 83.8733 284.155 83.66 283.915 83.5C283.688 83.3267 283.288 83.1733 282.715 83.04L281.335 82.74C281.028 82.6733 280.708 82.5667 280.375 82.42C280.055 82.2733 279.762 82.0867 279.495 81.86C279.228 81.6333 279.008 81.36 278.835 81.04C278.662 80.72 278.575 80.3467 278.575 79.92C278.575 79.44 278.675 79.0133 278.875 78.64C279.088 78.2667 279.375 77.9533 279.735 77.7C280.095 77.4333 280.515 77.2333 280.995 77.1C281.488 76.9533 282.015 76.88 282.575 76.88C283.508 76.88 284.342 77.0667 285.075 77.44C285.808 77.8 286.348 78.38 286.695 79.18L284.435 80.1C284.248 79.7133 283.975 79.4333 283.615 79.26C283.255 79.0867 282.895 79 282.535 79C282.162 79 281.835 79.08 281.555 79.24C281.275 79.3867 281.135 79.58 281.135 79.82C281.135 80.0467 281.248 80.2267 281.475 80.36C281.715 80.4933 282.035 80.6133 282.435 80.72L283.935 81.08C284.935 81.32 285.675 81.7067 286.155 82.24C286.648 82.76 286.895 83.38 286.895 84.1C286.895 84.5267 286.795 84.9333 286.595 85.32C286.395 85.7067 286.108 86.0533 285.735 86.36C285.375 86.6533 284.935 86.8867 284.415 87.06C283.908 87.2333 283.342 87.32 282.715 87.32Z" fill="black"/>
</g>
<defs>
<clipPath id="clip0_372_2024">
<rect width="379" height="353" rx="5" fill="white"/>
</clipPath>
</defs>
</svg>
