<svg width="379" height="353" viewBox="0 0 379 353" fill="none" xmlns="http://www.w3.org/2000/svg">
<g clip-path="url(#clip0_372_2056)">
<rect width="379" height="353" rx="5" fill="#172263"/>
<rect x="42" y="82" width="294" height="319" rx="5" fill="white"/>
<path d="M71 165.5H183C185.485 165.5 187.5 167.515 187.5 170V225C187.5 227.485 185.485 229.5 183 229.5H66.5V170C66.5 167.515 68.5147 165.5 71 165.5Z" fill="#E9E9E9"/>
<line x1="85.5" y1="183.5" x2="142.5" y2="183.5" stroke="#D9D9D9" stroke-width="7" stroke-linecap="round"/>
<path d="M71 165.5H183C185.485 165.5 187.5 167.515 187.5 170V225C187.5 227.485 185.485 229.5 183 229.5H66.5V170C66.5 167.515 68.5147 165.5 71 165.5Z" stroke="#E9E9E9"/>
<path d="M307 242.5H195C192.515 242.5 190.5 244.515 190.5 247V302C190.5 304.485 192.515 306.5 195 306.5H311.5V247C311.5 244.515 309.485 242.5 307 242.5Z" fill="#004DE1"/>
<line x1="235.5" y1="283.5" x2="292.5" y2="283.5" stroke="#003FB9" stroke-width="7" stroke-linecap="round"/>
<path d="M307 242.5H195C192.515 242.5 190.5 244.515 190.5 247V302C190.5 304.485 192.515 306.5 195 306.5H311.5V247C311.5 244.515 309.485 242.5 307 242.5Z" stroke="#004DE1"/>
<path d="M108.48 125V113.24H104.48V110.68H115.18V113.24H111.18V125H108.48ZM121.316 123.96H121.156C120.85 124.333 120.476 124.653 120.036 124.92C119.61 125.187 119.056 125.32 118.376 125.32C117.87 125.32 117.39 125.233 116.936 125.06C116.496 124.9 116.11 124.673 115.776 124.38C115.443 124.087 115.183 123.733 114.996 123.32C114.81 122.907 114.716 122.453 114.716 121.96C114.716 121.453 114.816 121 115.016 120.6C115.216 120.187 115.496 119.833 115.856 119.54C116.216 119.247 116.636 119.027 117.116 118.88C117.61 118.72 118.143 118.64 118.716 118.64C119.356 118.64 119.883 118.693 120.296 118.8C120.71 118.893 121.05 118.993 121.316 119.1V118.8C121.316 118.28 121.11 117.853 120.696 117.52C120.283 117.173 119.77 117 119.156 117C118.25 117 117.483 117.38 116.856 118.14L114.956 116.84C115.996 115.533 117.416 114.88 119.216 114.88C120.736 114.88 121.896 115.24 122.696 115.96C123.496 116.667 123.896 117.72 123.896 119.12V125H121.316V123.96ZM121.316 121.02C121.01 120.873 120.69 120.76 120.356 120.68C120.036 120.587 119.683 120.54 119.296 120.54C118.67 120.54 118.183 120.68 117.836 120.96C117.503 121.227 117.336 121.56 117.336 121.96C117.336 122.36 117.496 122.68 117.816 122.92C118.15 123.16 118.53 123.28 118.956 123.28C119.303 123.28 119.623 123.22 119.916 123.1C120.21 122.967 120.456 122.8 120.656 122.6C120.87 122.387 121.03 122.147 121.136 121.88C121.256 121.6 121.316 121.313 121.316 121.02ZM125.979 125V110.68H128.599V125H125.979ZM130.843 110.68H133.463V118.48H133.583L136.863 115.2H140.103V115.36L136.463 118.9L140.403 124.84V125H137.303L134.623 120.7L133.463 121.84V125H130.843V110.68ZM150.483 114.88C151.243 114.88 151.936 115.013 152.563 115.28C153.203 115.533 153.749 115.893 154.203 116.36C154.669 116.813 155.029 117.36 155.283 118C155.549 118.64 155.683 119.34 155.683 120.1C155.683 120.86 155.549 121.56 155.283 122.2C155.029 122.84 154.669 123.393 154.203 123.86C153.749 124.313 153.203 124.673 152.563 124.94C151.936 125.193 151.243 125.32 150.483 125.32C149.723 125.32 149.023 125.193 148.383 124.94C147.756 124.673 147.209 124.313 146.743 123.86C146.289 123.393 145.929 122.84 145.663 122.2C145.409 121.56 145.283 120.86 145.283 120.1C145.283 119.34 145.409 118.64 145.663 118C145.929 117.36 146.289 116.813 146.743 116.36C147.209 115.893 147.756 115.533 148.383 115.28C149.023 115.013 149.723 114.88 150.483 114.88ZM150.483 122.9C150.816 122.9 151.136 122.84 151.443 122.72C151.763 122.587 152.043 122.4 152.283 122.16C152.523 121.92 152.709 121.627 152.843 121.28C152.989 120.933 153.063 120.54 153.063 120.1C153.063 119.66 152.989 119.267 152.843 118.92C152.709 118.573 152.523 118.28 152.283 118.04C152.043 117.8 151.763 117.62 151.443 117.5C151.136 117.367 150.816 117.3 150.483 117.3C150.136 117.3 149.809 117.367 149.503 117.5C149.196 117.62 148.923 117.8 148.683 118.04C148.443 118.28 148.249 118.573 148.103 118.92C147.969 119.267 147.903 119.66 147.903 120.1C147.903 120.54 147.969 120.933 148.103 121.28C148.249 121.627 148.443 121.92 148.683 122.16C148.923 122.4 149.196 122.587 149.503 122.72C149.809 122.84 150.136 122.9 150.483 122.9ZM159.631 116.48H159.791C160.097 115.987 160.511 115.6 161.031 115.32C161.551 115.027 162.144 114.88 162.811 114.88C163.424 114.88 163.964 114.98 164.431 115.18C164.897 115.38 165.277 115.667 165.571 116.04C165.877 116.4 166.104 116.84 166.251 117.36C166.411 117.867 166.491 118.433 166.491 119.06V125H163.871V119.38C163.871 118.673 163.711 118.153 163.391 117.82C163.084 117.473 162.631 117.3 162.031 117.3C161.671 117.3 161.351 117.38 161.071 117.54C160.804 117.687 160.571 117.893 160.371 118.16C160.184 118.413 160.037 118.72 159.931 119.08C159.837 119.427 159.791 119.8 159.791 120.2V125H157.171V115.2H159.631V116.48ZM176.13 124.52L172.01 115.2H174.99L177.47 121.14H177.61L179.99 115.2H182.91L176.77 129.32H173.95L176.13 124.52ZM188.354 114.88C189.114 114.88 189.807 115.013 190.434 115.28C191.074 115.533 191.62 115.893 192.074 116.36C192.54 116.813 192.9 117.36 193.154 118C193.42 118.64 193.554 119.34 193.554 120.1C193.554 120.86 193.42 121.56 193.154 122.2C192.9 122.84 192.54 123.393 192.074 123.86C191.62 124.313 191.074 124.673 190.434 124.94C189.807 125.193 189.114 125.32 188.354 125.32C187.594 125.32 186.894 125.193 186.254 124.94C185.627 124.673 185.08 124.313 184.614 123.86C184.16 123.393 183.8 122.84 183.534 122.2C183.28 121.56 183.154 120.86 183.154 120.1C183.154 119.34 183.28 118.64 183.534 118C183.8 117.36 184.16 116.813 184.614 116.36C185.08 115.893 185.627 115.533 186.254 115.28C186.894 115.013 187.594 114.88 188.354 114.88ZM188.354 122.9C188.687 122.9 189.007 122.84 189.314 122.72C189.634 122.587 189.914 122.4 190.154 122.16C190.394 121.92 190.58 121.627 190.714 121.28C190.86 120.933 190.934 120.54 190.934 120.1C190.934 119.66 190.86 119.267 190.714 118.92C190.58 118.573 190.394 118.28 190.154 118.04C189.914 117.8 189.634 117.62 189.314 117.5C189.007 117.367 188.687 117.3 188.354 117.3C188.007 117.3 187.68 117.367 187.374 117.5C187.067 117.62 186.794 117.8 186.554 118.04C186.314 118.28 186.12 118.573 185.974 118.92C185.84 119.267 185.774 119.66 185.774 120.1C185.774 120.54 185.84 120.933 185.974 121.28C186.12 121.627 186.314 121.92 186.554 122.16C186.794 122.4 187.067 122.587 187.374 122.72C187.68 122.84 188.007 122.9 188.354 122.9ZM201.92 123.72H201.76C201.453 124.213 201.04 124.607 200.52 124.9C200 125.18 199.406 125.32 198.74 125.32C197.5 125.32 196.573 124.94 195.96 124.18C195.36 123.42 195.06 122.407 195.06 121.14V115.2H197.68V120.82C197.68 121.527 197.833 122.053 198.14 122.4C198.46 122.733 198.92 122.9 199.52 122.9C199.88 122.9 200.193 122.827 200.46 122.68C200.74 122.52 200.973 122.313 201.16 122.06C201.36 121.793 201.506 121.487 201.6 121.14C201.706 120.78 201.76 120.4 201.76 120V115.2H204.38V125H201.92V123.72ZM206.624 115.2H209.084V116.56H209.244C209.364 116.32 209.524 116.1 209.724 115.9C209.924 115.7 210.144 115.527 210.384 115.38C210.637 115.233 210.904 115.12 211.184 115.04C211.477 114.96 211.764 114.92 212.044 114.92C212.391 114.92 212.684 114.953 212.924 115.02C213.177 115.087 213.391 115.173 213.564 115.28L212.864 117.66C212.704 117.58 212.524 117.52 212.324 117.48C212.137 117.427 211.904 117.4 211.624 117.4C211.264 117.4 210.937 117.473 210.644 117.62C210.351 117.753 210.097 117.947 209.884 118.2C209.684 118.453 209.524 118.753 209.404 119.1C209.297 119.433 209.244 119.8 209.244 120.2V125H206.624V115.2ZM220.243 117.44H218.523V115.2H220.243V112.2H222.863V115.2H225.263V117.44H222.863V121.24C222.863 121.467 222.883 121.68 222.923 121.88C222.976 122.067 223.07 122.227 223.203 122.36C223.39 122.573 223.656 122.68 224.003 122.68C224.23 122.68 224.41 122.66 224.543 122.62C224.676 122.567 224.803 122.5 224.923 122.42L225.663 124.72C225.356 124.867 225.023 124.973 224.663 125.04C224.316 125.12 223.93 125.16 223.503 125.16C223.01 125.16 222.563 125.087 222.163 124.94C221.776 124.78 221.45 124.567 221.183 124.3C220.556 123.7 220.243 122.847 220.243 121.74V117.44ZM236.373 122.64C235.919 123.44 235.306 124.087 234.533 124.58C233.773 125.073 232.839 125.32 231.733 125.32C230.986 125.32 230.293 125.193 229.653 124.94C229.026 124.673 228.479 124.307 228.013 123.84C227.546 123.373 227.179 122.827 226.913 122.2C226.659 121.56 226.533 120.86 226.533 120.1C226.533 119.393 226.659 118.727 226.913 118.1C227.166 117.46 227.519 116.907 227.973 116.44C228.426 115.96 228.959 115.58 229.573 115.3C230.199 115.02 230.886 114.88 231.633 114.88C232.419 114.88 233.119 115.013 233.733 115.28C234.346 115.533 234.859 115.893 235.273 116.36C235.686 116.813 235.999 117.353 236.213 117.98C236.426 118.607 236.533 119.287 236.533 120.02C236.533 120.113 236.533 120.193 236.533 120.26C236.519 120.34 236.513 120.413 236.513 120.48C236.499 120.547 236.493 120.62 236.493 120.7H229.113C229.166 121.1 229.273 121.447 229.433 121.74C229.606 122.02 229.813 122.26 230.053 122.46C230.306 122.647 230.579 122.787 230.873 122.88C231.166 122.96 231.466 123 231.773 123C232.373 123 232.866 122.867 233.253 122.6C233.653 122.32 233.966 121.973 234.193 121.56L236.373 122.64ZM233.993 118.84C233.979 118.667 233.919 118.473 233.813 118.26C233.719 118.047 233.573 117.847 233.373 117.66C233.186 117.473 232.946 117.32 232.653 117.2C232.373 117.08 232.033 117.02 231.633 117.02C231.073 117.02 230.579 117.18 230.153 117.5C229.726 117.82 229.426 118.267 229.253 118.84H233.993ZM238.206 115.2H240.666V116.56H240.826C240.946 116.32 241.106 116.1 241.306 115.9C241.506 115.7 241.726 115.527 241.966 115.38C242.219 115.233 242.486 115.12 242.766 115.04C243.059 114.96 243.346 114.92 243.626 114.92C243.973 114.92 244.266 114.953 244.506 115.02C244.759 115.087 244.973 115.173 245.146 115.28L244.446 117.66C244.286 117.58 244.106 117.52 243.906 117.48C243.719 117.427 243.486 117.4 243.206 117.4C242.846 117.4 242.519 117.473 242.226 117.62C241.933 117.753 241.679 117.947 241.466 118.2C241.266 118.453 241.106 118.753 240.986 119.1C240.879 119.433 240.826 119.8 240.826 120.2V125H238.206V115.2ZM246.35 115.2H248.81V116.48H248.97C249.277 116 249.69 115.613 250.21 115.32C250.744 115.027 251.33 114.88 251.97 114.88C252.717 114.88 253.344 115.053 253.85 115.4C254.357 115.747 254.717 116.173 254.93 116.68C255.237 116.187 255.67 115.767 256.23 115.42C256.79 115.06 257.47 114.88 258.27 114.88C258.87 114.88 259.39 114.98 259.83 115.18C260.27 115.367 260.63 115.633 260.91 115.98C261.204 116.327 261.424 116.747 261.57 117.24C261.717 117.72 261.79 118.247 261.79 118.82V125H259.17V119.3C259.17 117.967 258.624 117.3 257.53 117.3C257.184 117.3 256.877 117.38 256.61 117.54C256.344 117.687 256.117 117.893 255.93 118.16C255.757 118.413 255.617 118.72 255.51 119.08C255.417 119.44 255.37 119.827 255.37 120.24V125H252.75V119.3C252.75 117.967 252.177 117.3 251.03 117.3C250.697 117.3 250.404 117.38 250.15 117.54C249.897 117.687 249.684 117.893 249.51 118.16C249.337 118.413 249.204 118.72 249.11 119.08C249.017 119.44 248.97 119.827 248.97 120.24V125H246.35V115.2ZM267.73 125.32C267.09 125.32 266.517 125.24 266.01 125.08C265.517 124.92 265.084 124.713 264.71 124.46C264.35 124.193 264.044 123.893 263.79 123.56C263.537 123.213 263.344 122.867 263.21 122.52L265.55 121.52C265.777 122.027 266.077 122.407 266.45 122.66C266.837 122.9 267.264 123.02 267.73 123.02C268.21 123.02 268.59 122.933 268.87 122.76C269.15 122.587 269.29 122.38 269.29 122.14C269.29 121.873 269.17 121.66 268.93 121.5C268.704 121.327 268.304 121.173 267.73 121.04L266.35 120.74C266.044 120.673 265.724 120.567 265.39 120.42C265.07 120.273 264.777 120.087 264.51 119.86C264.244 119.633 264.024 119.36 263.85 119.04C263.677 118.72 263.59 118.347 263.59 117.92C263.59 117.44 263.69 117.013 263.89 116.64C264.104 116.267 264.39 115.953 264.75 115.7C265.11 115.433 265.53 115.233 266.01 115.1C266.504 114.953 267.03 114.88 267.59 114.88C268.524 114.88 269.357 115.067 270.09 115.44C270.824 115.8 271.364 116.38 271.71 117.18L269.45 118.1C269.264 117.713 268.99 117.433 268.63 117.26C268.27 117.087 267.91 117 267.55 117C267.177 117 266.85 117.08 266.57 117.24C266.29 117.387 266.15 117.58 266.15 117.82C266.15 118.047 266.264 118.227 266.49 118.36C266.73 118.493 267.05 118.613 267.45 118.72L268.95 119.08C269.95 119.32 270.69 119.707 271.17 120.24C271.664 120.76 271.91 121.38 271.91 122.1C271.91 122.527 271.81 122.933 271.61 123.32C271.41 123.707 271.124 124.053 270.75 124.36C270.39 124.653 269.95 124.887 269.43 125.06C268.924 125.233 268.357 125.32 267.73 125.32Z" fill="black"/>
</g>
<defs>
<clipPath id="clip0_372_2056">
<rect width="379" height="353" rx="5" fill="white"/>
</clipPath>
</defs>
</svg>
