<svg width="30" height="30" viewBox="0 0 30 30" fill="none" xmlns="http://www.w3.org/2000/svg">
<path d="M12.5 21.1876H7.7625C3.55 21.1876 2.5 20.1376 2.5 15.9251V8.4251C2.5 4.2126 3.55 3.1626 7.7625 3.1626H20.925C25.1375 3.1626 26.1875 4.2126 26.1875 8.4251" stroke="#292D32" stroke-width="1.5" stroke-linecap="round" stroke-linejoin="round"/>
<path d="M12.5 26.8375V21.1875" stroke="#292D32" stroke-width="1.5" stroke-linecap="round" stroke-linejoin="round"/>
<path d="M2.5 16.1875H12.5" stroke="#292D32" stroke-width="1.5" stroke-linecap="round" stroke-linejoin="round"/>
<path d="M8.4248 26.8374H12.4998" stroke="#292D32" stroke-width="1.5" stroke-linecap="round" stroke-linejoin="round"/>
<path d="M27.4996 15.9998V23.1373C27.4996 26.0998 26.7621 26.8373 23.7996 26.8373H19.3621C16.3996 26.8373 15.6621 26.0998 15.6621 23.1373V15.9998C15.6621 13.0373 16.3996 12.2998 19.3621 12.2998H23.7996C26.7621 12.2998 27.4996 13.0373 27.4996 15.9998Z" stroke="#292D32" stroke-width="1.5" stroke-linecap="round" stroke-linejoin="round"/>
<path d="M21.5556 22.8125H21.5669" stroke="#292D32" stroke-width="2" stroke-linecap="round" stroke-linejoin="round"/>
</svg>
