<svg width="14" height="13" viewBox="0 0 14 13" fill="none" xmlns="http://www.w3.org/2000/svg">
<path d="M6.08457 1.08213C6.43485 0.28543 7.56515 0.285431 7.91543 1.08213L8.95639 3.44976C9.10152 3.77986 9.41313 4.00626 9.77192 4.04228L12.3454 4.30065C13.2113 4.38759 13.5606 5.46258 12.9111 6.0419L10.981 7.76355C10.7119 8.00359 10.5929 8.36991 10.6695 8.72227L11.219 11.2496C11.4039 12.1 10.4895 12.7644 9.73784 12.3257L7.50403 11.0221C7.19258 10.8404 6.80741 10.8404 6.49597 11.0221L4.26216 12.3257C3.51049 12.7644 2.59606 12.1 2.78096 11.2496L3.33047 8.72227C3.40709 8.3699 3.28806 8.00359 3.01897 7.76355L1.08888 6.0419C0.439422 5.46258 0.788707 4.38759 1.65465 4.30065L4.22808 4.04228C4.58687 4.00626 4.89848 3.77986 5.04361 3.44976L6.08457 1.08213Z" fill="#FFB650"/>
</svg>
