<svg enable-background="new 0 0 512 512" viewBox="0 0 512 512" xmlns="http://www.w3.org/2000/svg"><g id="_x30_5_Business"><g><path d="m174.508 165.966h20.419c4.111 0 7.446-3.333 7.446-7.446s-3.335-7.446-7.446-7.446h-20.419c-4.111 0-7.446 3.333-7.446 7.446s3.335 7.446 7.446 7.446z"/><path d="m225.561 165.966h108.632c4.111 0 7.446-3.333 7.446-7.446s-3.335-7.446-7.446-7.446h-108.632c-4.111 0-7.446 3.333-7.446 7.446s3.335 7.446 7.446 7.446z"/><path d="m174.508 214.573h20.419c4.111 0 7.446-3.333 7.446-7.446s-3.335-7.446-7.446-7.446h-20.419c-4.111 0-7.446 3.333-7.446 7.446s3.335 7.446 7.446 7.446z"/><path d="m225.561 214.573h112.341c4.111 0 7.446-3.333 7.446-7.446s-3.335-7.446-7.446-7.446h-112.341c-4.111 0-7.446 3.333-7.446 7.446s3.335 7.446 7.446 7.446z"/><path d="m174.508 263.183h20.419c4.111 0 7.446-3.333 7.446-7.446s-3.335-7.446-7.446-7.446h-20.419c-4.111 0-7.446 3.333-7.446 7.446s3.335 7.446 7.446 7.446z"/><path d="m225.561 263.183h41.837c4.111 0 7.446-3.333 7.446-7.446s-3.335-7.446-7.446-7.446h-41.837c-4.111 0-7.446 3.333-7.446 7.446s3.335 7.446 7.446 7.446z"/><path d="m174.508 311.793h20.419c4.111 0 7.446-3.333 7.446-7.446s-3.335-7.446-7.446-7.446h-20.419c-4.111 0-7.446 3.333-7.446 7.446s3.335 7.446 7.446 7.446z"/><path d="m225.561 311.793h71.521c4.111 0 7.446-3.333 7.446-7.446s-3.335-7.446-7.446-7.446h-71.521c-4.111 0-7.446 3.333-7.446 7.446s3.335 7.446 7.446 7.446z"/><path d="m431.015 236.192-28.048-20.899v-90.796c0-23.828-19.51-43.189-43.536-43.189h-59.075v-27.701c0-23.878-19.559-43.338-43.685-43.338-24.077 0-43.636 19.46-43.636 43.338v27.701h-60.067c-23.977 0-43.537 19.36-43.537 43.189v90.499l-28.445 21.197c-14.297 10.624-23.58 27.8-23.58 46.764v174.443c0 24.474 20.006 44.331 44.629 44.331h307.883c24.623 0 44.678-19.857 44.678-44.331v-174.444c-.001-18.964-9.334-36.19-23.581-46.764zm-181.791-181.592c0-4.071 3.376-7.446 7.446-7.446 4.12 0 7.446 3.376 7.446 7.446v8.985c0 4.12-3.326 7.446-7.446 7.446-4.071 0-7.446-3.326-7.446-7.446zm-124.901 69.897c0-15.588 12.858-28.296 28.644-28.296h206.463c15.786 0 28.644 12.708 28.644 28.296v158.012l-124.553 88.116c-4.518 3.177-10.574 3.177-15.092 0l-124.106-87.818zm315.379 332.903c0 16.233-13.354 29.438-29.786 29.438h-307.883c-16.382 0-29.736-13.205-29.736-29.438v-174.444c0-5.659 1.092-11.219 3.227-16.432 23.729 16.829 135.772 96.058 176.181 124.652 1.291.894 2.78 1.34 4.269 1.34 1.539 0 3.028-.447 4.319-1.34 188.245-133.191 173.551-122.816 176.132-124.652 2.184 5.212 3.277 10.772 3.277 16.432z"/></g></g><g id="Layer_1"/></svg>